/* XPM */
static char *result[] = {
/* columns rows colors chars-per-pixel */
"32 32 188 2 ",
"   c #4D3D45",
".  c #604A4C",
"X  c #846359",
"o  c #987060",
"O  c #97705F",
"+  c #966F5F",
"@  c #856359",
"#  c #4F3F46",
"$  c #504047",
"%  c #4F3F47",
"&  c #594448",
"*  c #6E4D4B",
"=  c #78514C",
"-  c #77514C",
";  c #6D4D4B",
":  c #594348",
">  c #514047",
",  c #6E5451",
"<  c #89665A",
"1  c #976F5F",
"2  c #8B685C",
"3  c #725856",
"4  c #604C50",
"5  c #55434A",
"6  c #524047",
"7  c #574248",
"8  c #614749",
"9  c #704E4B",
"0  c #714F4C",
"q  c #65494B",
"w  c #5B454A",
"e  c #544148",
"r  c #926C5D",
"t  c #967163",
"y  c #96756A",
"u  c #836864",
"i  c #604D50",
"p  c #564247",
"a  c #654949",
"s  c #75504C",
"d  c #79524E",
"f  c #7D5552",
"g  c #735050",
"h  c #5C454A",
"j  c #503F47",
"k  c #956E5E",
"l  c #9D7666",
"z  c #A98475",
"x  c #96776E",
"c  c #665254",
"v  c #584347",
"b  c #6D4C4A",
"n  c #79524C",
"m  c #76514C",
"M  c #7E544F",
"N  c #8A5B55",
"B  c #7F5654",
"V  c #60474B",
"C  c #966E5E",
"Z  c #9C7666",
"A  c #A88474",
"S  c #95776E",
"D  c #665154",
"F  c #584247",
"G  c #78524C",
"H  c #7D544F",
"J  c #7F5653",
"K  c #A78374",
"L  c #94766D",
"P  c #665153",
"I  c #895B55",
"U  c #7E5653",
"Y  c #5F474B",
"T  c #966F5E",
"R  c #9C7566",
"E  c #76504C",
"W  c #977060",
"Q  c #997363",
"!  c #A07B6B",
"~  c #A98576",
"^  c #7B534E",
"/  c #825751",
"(  c #8B5C56",
")  c #A17D6E",
"_  c #AD897A",
"`  c #835852",
"'  c #8E5E57",
"]  c #876356",
"[  c #8C685A",
"{  c #977162",
"}  c #9D7667",
"|  c #A88476",
" . c #A88578",
".. c #9E7C70",
"X. c #856862",
"o. c #614C4F",
"O. c #574246",
"+. c #674947",
"@. c #744F4A",
"#. c #7A534D",
"$. c #815751",
"%. c #8A5C56",
"&. c #8C5C56",
"*. c #855953",
"=. c #74504E",
"-. c #5C4549",
";. c #664A44",
":. c #775951",
">. c #977568",
",. c #A88475",
"<. c #AC897A",
"1. c #9D7C70",
"2. c #7D6058",
"3. c #644C4A",
"4. c #564348",
"5. c #534045",
"6. c #5B4342",
"7. c #6B4A46",
"8. c #7F5650",
"9. c #8E5E58",
"0. c #704D49",
"q. c #604544",
"w. c #554246",
"e. c #543E3E",
"r. c #654D4A",
"t. c #866960",
"y. c #98786C",
"u. c #97776C",
"i. c #96766B",
"p. c #98776C",
"a. c #654C49",
"s. c #533E40",
"d. c #513F45",
"f. c #524045",
"g. c #544041",
"h. c #614644",
"j. c #76514D",
"k. c #815651",
"l. c #513F44",
"z. c #584446",
"x. c #664D4A",
"c. c #6D524C",
"v. c #6C524C",
"b. c #514046",
"n. c #574244",
"m. c #664844",
"M. c #654844",
"N. c #604644",
"B. c #514045",
"V. c #544145",
"C. c #5B4242",
"Z. c #5F4340",
"A. c #5E4340",
"S. c #544146",
"D. c #5F4441",
"F. c #574347",
"G. c #674948",
"H. c #6F4C48",
"J. c #574247",
"K. c #674A48",
"L. c #704D48",
"P. c #6F4D48",
"I. c #724F4C",
"U. c #664A4B",
"Y. c #524147",
"T. c #574348",
"R. c #624749",
"E. c #714E4B",
"W. c #544248",
"Q. c #7A534E",
"!. c #7E5552",
"~. c #735150",
"^. c #66494A",
"/. c #805754",
"(. c #6D4C4B",
"). c #734F4A",
"_. c #74514E",
"`. c #6A4A46",
"'. c #7F5550",
"]. c #554146",
"[. c #55403F",
"{. c #805651",
"}. c #574245",
"|. c #514048",
" X c #564040",
".X c #58403D",
"XX c #57403D",
"oX c white",
/* pixels */
"  . X o O + + + + O o @ .   # $ % & * = = - - - - = = ; : % $ > ",
". , < O O + + + + 1 O 2 3 4 5 6 7 8 9 = - - - - - - = 0 q w e > ",
"X < r + + + + + + + + t y u i p a 9 s - - - - - - - - d f g h j ",
"o O + + + + + + + + k l z x c v b n = - - - - - - - m M N B V # ",
"O O + + + + + + + + C Z A S D F b G = - - - - - - - m H N J V # ",
"+ + + + + + + + + + C Z K L P F b = = - - - - - - - m H I U Y % ",
"+ + + + + + + + + + C Z K L P F b = = - - - - - - - m H I U Y % ",
"+ + + + + + + + + + k Z K L P F b = = - - - - - - - m H I U Y % ",
"+ + + + + + + + + T k R K L P F b = = - - - - - - - E H I U Y % ",
"W 1 + + + + + + T W Q ! ~ S P F b G - - - - - - - = ^ / ( J V # ",
"W O + k C C C k k Q ) ~ _ x P v b G - m m m m m E ^ ` ( ' J V # ",
"] [ { } Z Z Z Z R ! |  ...X.o.O.+.@.#.H H H H H H $.%.&.*.=.-.j ",
";.:.>.z ,.K K K K ~ <.1.2.3.4.5.6.7.8.N N I I I I ( 9.*.0.q.w.$ ",
"e.r.t.y.u.i.i.i.i.u.p.t.a.s.d.f.g.h.j./ $.k.k.k.k.$.$.j.q.g.f.> ",
"l.z.x.c.c.v.v.v.v.v.c.x.z.d.b.> f.n.h.m.M.M.M.M.M.M.M.N.n.B.b.> ",
"$ V.C.Z.Z.A.A.A.A.Z.Z.C.5.$ > > $ S.6.D.D.D.D.D.D.D.D.6.V.$ > > ",
"% F.G.H.H.H.H.H.H.H.H.G.J.% $ $ j F.K.L.P.P.P.P.P.P.L.G.F.% $ > ",
"& 8 9 G G = = = = G G I.U.w e Y.T.R.E.G G = = = = G G I.U.w W.> ",
"* 9 s = = - - - - - - Q.!.~.w T.^.E.E = = - - - - - - Q.!.~.h j ",
"= = - - - - - - - - m M N /.Y & * n = - - - - - - - m M N B V # ",
"= - - - - - - - - - m H N B Y : ; G = - - - - - - - m H N J V # ",
"- - - - - - - - - - m H I U Y : (.= = - - - - - - - m H I U Y % ",
"- - - - - - - - - - m H I U Y : (.= = - - - - - - - m H I U Y % ",
"- - - - - - - - - - m H I U Y : (.= = - - - - - - - m H I U Y % ",
"- - - - - - - - - - E H I U Y : (.= = - - - - - - - E H I U Y % ",
"- - - - - - - - - = ^ / ( B Y : ; G - - - - - - - = ^ / ( J V # ",
"= - - m m m m m E ^ ` ( ' B Y & ; G - m m m m m E ^ ` ( ' J V # ",
"P.).#.H H H H H H $.%.&.*._.-.F.G.@.#.H H H H H H $.%.&.*.=.-.j ",
"D.`.'.N N I I I I ( 9.*.0.q.].V.6.7.8.N N I I I I ( 9.*.0.q.w.$ ",
"[.N.j.$.$.{.{.{.{.k.$.m q.g.B.f.g.h.j.$.$.{.{.{.{.k.$.m q.g.f.> ",
"f.}.h.m.m.m.m.m.m.m.m.h.n.B.b.> f.n.h.m.m.m.m.m.m.m.m.h.n.B.b.> ",
"|.f. X.XXXXXXXXXXXXX.X Xf.> > > > f. X.XXXXXXXXXXXXX.X Xf.> > > "
};
