/* XPM */
static char *result[] = {
/* columns rows colors chars-per-pixel */
"32 32 213 2 ",
"   c #4D3D45",
".  c #604A4C",
"X  c #846359",
"o  c #987060",
"O  c #97705F",
"+  c #966F5F",
"@  c #856359",
"#  c #4F3F46",
"$  c #503F46",
"%  c #4E3E46",
"&  c #514047",
"*  c #6E5451",
"=  c #89665A",
"-  c #976F5F",
";  c #8B685C",
":  c #725856",
">  c #604C50",
",  c #55434A",
"<  c #544248",
"1  c #5C474B",
"2  c #8A665B",
"3  c #55444A",
"4  c #503F47",
"5  c #926C5D",
"6  c #967163",
"7  c #96756A",
"8  c #836863",
"9  c #5C474A",
"0  c #775A54",
"q  c #8A675B",
"w  c #936D5E",
"e  c #614D50",
"r  c #4F3E46",
"t  c #956E5E",
"y  c #9D7666",
"u  c #A98475",
"i  c #96776E",
"p  c #665153",
"a  c #997160",
"s  c #675253",
"d  c #4E3E45",
"f  c #966E5E",
"g  c #9C7666",
"h  c #A88474",
"j  c #95776E",
"k  c #655153",
"l  c #987160",
"z  c #95766E",
"x  c #675153",
"c  c #A78374",
"v  c #94766D",
"b  c #655053",
"n  c #846358",
"m  c #966F5E",
"M  c #9C7566",
"N  c #977060",
"B  c #997363",
"V  c #A07B6B",
"C  c #A98576",
"Z  c #A17D6E",
"A  c #AD897A",
"S  c #876356",
"D  c #8C685A",
"F  c #977162",
"G  c #9D7667",
"H  c #A88476",
"J  c #A88578",
"K  c #9E7C70",
"L  c #846861",
"P  c #604C4F",
"I  c #795A52",
"U  c #8E695B",
"Y  c #987263",
"T  c #856861",
"R  c #614C4F",
"E  c #664A44",
"W  c #775951",
"Q  c #977568",
"!  c #A88475",
"~  c #AC897A",
"^  c #9D7C70",
"/  c #7D6058",
"(  c #644C4A",
")  c #564348",
"_  c #554246",
"`  c #604845",
"'  c #785A51",
"]  c #987669",
"[  c #574348",
"{  c #543E3E",
"}  c #654D4A",
"|  c #866960",
" . c #98786C",
".. c #97776C",
"X. c #96766B",
"o. c #98776C",
"O. c #654C49",
"+. c #533E40",
"@. c #513F45",
"#. c #876960",
"$. c #97776B",
"%. c #866860",
"&. c #513F44",
"*. c #584446",
"=. c #664D4A",
"-. c #6D524C",
";. c #6C524C",
":. c #514046",
">. c #6C514C",
",. c #6B514C",
"<. c #584346",
"1. c #504047",
"2. c #544145",
"3. c #5B4242",
"4. c #5F4340",
"5. c #5E4340",
"6. c #534045",
"7. c #664B45",
"8. c #664A45",
"9. c #4F3F47",
"0. c #574347",
"q. c #674948",
"w. c #6F4C48",
"e. c #574247",
"r. c #5C484A",
"t. c #876457",
"y. c #866356",
"u. c #594448",
"i. c #614749",
"p. c #704E4B",
"a. c #78524C",
"s. c #78514C",
"d. c #724F4C",
"f. c #664A4B",
"g. c #5B454A",
"h. c #544148",
"j. c #5C484B",
"k. c #6F5452",
"l. c #8B675B",
"z. c #8C695D",
"x. c #735956",
"c. c #6E4D4B",
"v. c #75504C",
"b. c #77514C",
"n. c #7A534E",
"m. c #7E5552",
"M. c #735050",
"N. c #785A54",
"B. c #977263",
"V. c #97766B",
"C. c #836864",
"Z. c #76514C",
"A. c #7E544F",
"S. c #8A5B55",
"D. c #7F5653",
"F. c #5F464B",
"G. c #614B4D",
"H. c #866459",
"J. c #7D544F",
"K. c #5E464B",
"L. c #604B4D",
"P. c #856459",
"I. c #895B55",
"U. c #7E5653",
"Y. c #5E464A",
"T. c #604B4C",
"R. c #76504C",
"E. c #7B534E",
"W. c #825751",
"Q. c #8B5C56",
"!. c #835852",
"~. c #8E5E57",
"^. c #86645A",
"/. c #6F4D48",
"(. c #734F4A",
"). c #7A534D",
"_. c #815751",
"`. c #8A5C56",
"'. c #8C5C56",
"]. c #855953",
"[. c #74504E",
"{. c #5B4449",
"}. c #5D484A",
"|. c #795A53",
" X c #5F4441",
".X c #6A4A46",
"XX c #7F5550",
"oX c #8E5E58",
"OX c #704D49",
"+X c #5F4544",
"@X c #554146",
"#X c #614845",
"$X c #55403F",
"%X c #604644",
"&X c #76514D",
"*X c #805651",
"=X c #815651",
"-X c #604544",
";X c #544041",
":X c #514045",
">X c #524045",
",X c #574245",
"<X c #614644",
"1X c #664844",
"2X c #574244",
"3X c #514048",
"4X c #564040",
"5X c #58403D",
"6X c #57403D",
"7X c #553F3F",
"8X c #573F3C",
"9X c #563F3C",
"0X c white",
/* pixels */
"  . X o O + + + + O o @ .   # $ % . @ o O + + + + O o @ .   # & ",
". * = O O + + + + - O ; : > , < 1 * 2 O O + + + + - O ; : > 3 4 ",
"X = 5 + + + + + + + + 6 7 8 > 9 0 q w + + + + + + + + 6 7 8 e r ",
"o O + + + + + + + + t y u i p . @ a O + + + + + + + t y u i s d ",
"O O + + + + + + + + f g h j k . @ l O + + + + + + + f g h z x d ",
"+ + + + + + + + + + f g c v b . n o O + + + + + + + f g c v p d ",
"+ + + + + + + + + + f g c v b . n o O + + + + + + + f g c v p d ",
"+ + + + + + + + + + t g c v b . n o O + + + + + + + t g c v p d ",
"+ + + + + + + + + m t M c v b . n o O + + + + + + m t M c v p d ",
"N - + + + + + + m N B V C z k . @ l O + + + + + m N B V C z x d ",
"N O + t f f f t t B Z C A j k . @ a O t f f f t t B Z C A z x d ",
"S D F G g g g g M V H J K L P 9 I U Y G g g g g M V H J K T R r ",
"E W Q u ! c c c c C ~ ^ / ( ) _ ` ' ] u ! c c c c C ~ ^ / ( [ 4 ",
"{ } |  ...X.X.X.X...o.| O.+.@.@.+.} #.o...X.X.X.X.$.$.%.O.+.&.& ",
"&.*.=.-.-.;.;.;.;.;.-.=.*.@.:.:.@.*.} ;.>.,.,.,.,.>.>.} <.@.:.& ",
"1.2.3.4.4.5.5.5.5.4.4.3.6.1.& 1.4 _ ` 7.7.8.8.8.8.7.7.` _ 9.1.& ",
"9.0.q.w.w.w.w.w.w.w.w.q.e.9.1.4 % r.I t.S y.y.y.y.S t.I 9 % 4 & ",
"u.i.p.a.a.s.s.s.s.a.a.d.f.g.h.< j.k.l.a l N N N N l a z.x.> 3 4 ",
"c.p.v.s.s.b.b.b.b.b.b.n.m.M.g.j.N.l.w N N O O O O O O B.V.C.e r ",
"s.s.b.b.b.b.b.b.b.b.Z.A.S.D.F.G.H.a O + + + + + + + t y u i s d ",
"s.b.b.b.b.b.b.b.b.b.Z.J.S.D.K.L.P.l O + + + + + + + f g h z x d ",
"b.b.b.b.b.b.b.b.b.b.Z.J.I.U.Y.T.X o O + + + + + + + f g c v p d ",
"b.b.b.b.b.b.b.b.b.b.Z.J.I.U.Y.T.X o O + + + + + + + f g c v p d ",
"b.b.b.b.b.b.b.b.b.b.Z.J.I.U.Y.T.X o O + + + + + + + t g c v p d ",
"b.b.b.b.b.b.b.b.b.b.R.J.I.U.Y.T.X o O + + + + + + m t M c v p d ",
"b.b.b.b.b.b.b.b.b.s.E.W.Q.U.K.L.P.l O + + + + + m N B V C z x d ",
"s.b.b.Z.Z.Z.Z.Z.R.E.!.Q.~.D.Y.G.^.a O t f f f t t B Z C A z x d ",
"/.(.).J.J.J.J.J.J._.`.'.].[.{.}.|.U Y G g g g g M V H J K T R r ",
" X.XXXS.S.I.I.I.I.Q.oX].OX+X@X_ #X' ] u ! c c c c C ~ ^ / ( [ 4 ",
"$X%X&X_._.*X*X*X*X=X_.Z.-X;X:X@.+.} #.o.$.X.X.X.X.$.$.%.O.+.&.& ",
">X,X<X1X1X1X1X1X1X1X1X<X2X:X:.:.@.*.=.-.-.;.;.;.;.-.-.=.*.@.:.& ",
"3X>X4X5X6X6X6X6X6X6X5X4X>X& & & & >X7X8X8X9X9X9X9X8X8X7X>X& & & "
};
