/* XPM */
static char *result[] = {
/* columns rows colors chars-per-pixel */
"32 32 101 2 ",
"   c #4F3F47",
".  c #594448",
"X  c #6D4D4B",
"o  c #78514C",
"O  c #77514C",
"+  c #594348",
"@  c #4F3F46",
"#  c #504047",
"$  c #6E4D4B",
"%  c #514047",
"&  c #614749",
"*  c #704E4B",
"=  c #714F4C",
"-  c #65494B",
";  c #5B454A",
":  c #544148",
">  c #524147",
",  c #574348",
"<  c #75504C",
"1  c #79524E",
"2  c #7D5552",
"3  c #735050",
"4  c #574248",
"5  c #66494A",
"6  c #5C454A",
"7  c #503F47",
"8  c #76514C",
"9  c #7E544F",
"0  c #8A5B55",
"q  c #805754",
"w  c #5F474B",
"e  c #79524C",
"r  c #7F5654",
"t  c #60474B",
"y  c #7D544F",
"u  c #78524C",
"i  c #7F5653",
"p  c #895B55",
"a  c #7E5653",
"s  c #6D4C4B",
"d  c #76504C",
"f  c #7B534E",
"g  c #825751",
"h  c #8B5C56",
"j  c #835852",
"k  c #8E5E57",
"l  c #6F4D48",
"z  c #734F4A",
"x  c #7A534D",
"c  c #815751",
"v  c #8A5C56",
"b  c #8C5C56",
"n  c #855953",
"m  c #74514E",
"M  c #5C4549",
"N  c #574347",
"B  c #674948",
"V  c #744F4A",
"C  c #74504E",
"Z  c #5F4441",
"A  c #6A4A46",
"S  c #7F5550",
"D  c #8E5E58",
"F  c #704D49",
"G  c #604544",
"H  c #554146",
"J  c #544145",
"K  c #5B4342",
"L  c #6B4A46",
"P  c #7F5650",
"I  c #554246",
"U  c #55403F",
"Y  c #604644",
"T  c #76514D",
"R  c #815651",
"E  c #544041",
"W  c #514045",
"Q  c #524045",
"!  c #614644",
"~  c #574244",
"^  c #664844",
"/  c #654844",
"(  c #514046",
")  c #544146",
"_  c #704D48",
"`  c #674A48",
"'  c #724F4C",
"]  c #664A4B",
"[  c #624749",
"{  c #714E4B",
"}  c #544248",
"|  c #7A534E",
" . c #7E5552",
".. c #735150",
"X. c #805651",
"o. c #574245",
"O. c #514048",
"+. c #564040",
"@. c #58403D",
"#. c #57403D",
"$. c white",
/* pixels */
"  . X o o O O O O o o X + @ # #   . $ o o O O O O o o X +   # % ",
". & * o O O O O O O o = - ; : > , & * o O O O O O O o = - ; : % ",
"X * < O O O O O O O O 1 2 3 ; 4 5 * < O O O O O O O O 1 2 3 6 7 ",
"o o O O O O O O O O 8 9 0 q w . $ e o O O O O O O O 8 9 0 r t @ ",
"o O O O O O O O O O 8 y 0 r w + X u o O O O O O O O 8 y 0 i t @ ",
"O O O O O O O O O O 8 y p a w + s o o O O O O O O O 8 y p a w   ",
"O O O O O O O O O O 8 y p a w + s o o O O O O O O O 8 y p a w   ",
"O O O O O O O O O O 8 y p a w + s o o O O O O O O O 8 y p a w   ",
"O O O O O O O O O O d y p a w + s o o O O O O O O O d y p a w   ",
"O O O O O O O O O o f g h r w + X u O O O O O O O o f g h i t @ ",
"o O O 8 8 8 8 8 d f j h k r w . X u O 8 8 8 8 8 d f j h k i t @ ",
"l z x y y y y y y c v b n m M N B V x y y y y y y c v b n C M 7 ",
"Z A S 0 0 p p p p h D n F G H J K L P 0 0 p p p p h D n F G I # ",
"U Y T g c R R R R c c T G E W Q E ! T g c R R R R c c T G E Q % ",
"Q ~ Y ^ / / / / / / / Y ~ W ( ( Q ~ ! ^ / / / / / / / Y ~ W ( % ",
"# ) K Z Z Z Z Z Z Z Z K J # % % # ) K Z Z Z Z Z Z Z Z K J # % % ",
"  N B _ l l l l l l _ B N   # # 7 N ` _ l l l l l l _ B N   # % ",
". & * u u o o o o u u ' ] ; : > , [ { u u o o o o u u ' ] ; } % ",
"$ * < o o O O O O O O |  ...; , 5 { d o o O O O O O O |  ...6 7 ",
"o o O O O O O O O O 8 9 0 q w . $ e o O O O O O O O 8 9 0 r t @ ",
"o O O O O O O O O O 8 y 0 r w + X u o O O O O O O O 8 y 0 i t @ ",
"O O O O O O O O O O 8 y p a w + s o o O O O O O O O 8 y p a w   ",
"O O O O O O O O O O 8 y p a w + s o o O O O O O O O 8 y p a w   ",
"O O O O O O O O O O 8 y p a w + s o o O O O O O O O 8 y p a w   ",
"O O O O O O O O O O d y p a w + s o o O O O O O O O d y p a w   ",
"O O O O O O O O O o f g h r w + X u O O O O O O O o f g h i t @ ",
"o O O 8 8 8 8 8 d f j h k r w . X u O 8 8 8 8 8 d f j h k i t @ ",
"l z x y y y y y y c v b n m M N B V x y y y y y y c v b n C M 7 ",
"Z A S 0 0 p p p p h D n F G H J K L P 0 0 p p p p h D n F G I # ",
"U Y T c c X.X.X.X.R c 8 G E W Q E ! T c c X.X.X.X.R c 8 G E Q % ",
"Q o.! ^ ^ ^ ^ ^ ^ ^ ^ ! ~ W ( % Q ~ ! ^ ^ ^ ^ ^ ^ ^ ^ ! ~ W ( % ",
"O.Q +.@.#.#.#.#.#.#.@.+.Q % % % % Q +.@.#.#.#.#.#.#.@.+.Q % % % "
};
