/* XPM */
static char *result[] = {
/* columns rows colors chars-per-pixel */
"32 32 206 2 ",
"   c #4D3D45",
".  c #604A4C",
"X  c #846359",
"o  c #987060",
"O  c #97705F",
"+  c #966F5F",
"@  c #856359",
"#  c #4F3F46",
"$  c #503F46",
"%  c #4E3E46",
"&  c #514047",
"*  c #6E5451",
"=  c #89665A",
"-  c #976F5F",
";  c #8B685C",
":  c #725856",
">  c #604C50",
",  c #55434A",
"<  c #544248",
"1  c #5C474B",
"2  c #8A665B",
"3  c #55444A",
"4  c #503F47",
"5  c #926C5D",
"6  c #967163",
"7  c #96756A",
"8  c #836863",
"9  c #5C474A",
"0  c #775A54",
"q  c #8A675B",
"w  c #936D5E",
"e  c #614D50",
"r  c #4F3E46",
"t  c #956E5E",
"y  c #9D7666",
"u  c #A98475",
"i  c #96776E",
"p  c #665153",
"a  c #997160",
"s  c #675253",
"d  c #4E3E45",
"f  c #966E5E",
"g  c #9C7666",
"h  c #A88474",
"j  c #95776E",
"k  c #655153",
"l  c #987160",
"z  c #95766E",
"x  c #675153",
"c  c #A78374",
"v  c #94766D",
"b  c #655053",
"n  c #846358",
"m  c #966F5E",
"M  c #9C7566",
"N  c #977060",
"B  c #997363",
"V  c #A07B6B",
"C  c #A98576",
"Z  c #A17D6E",
"A  c #AD897A",
"S  c #876356",
"D  c #8C685A",
"F  c #977162",
"G  c #9D7667",
"H  c #A88476",
"J  c #A88578",
"K  c #9E7C70",
"L  c #846861",
"P  c #604C4F",
"I  c #795A52",
"U  c #8E695B",
"Y  c #987263",
"T  c #856861",
"R  c #614C4F",
"E  c #664A44",
"W  c #775951",
"Q  c #977568",
"!  c #A88475",
"~  c #AC897A",
"^  c #9D7C70",
"/  c #7D6058",
"(  c #644C4A",
")  c #564348",
"_  c #554246",
"`  c #604845",
"'  c #785A51",
"]  c #987669",
"[  c #574348",
"{  c #543E3E",
"}  c #654C4A",
"|  c #866860",
" . c #98776C",
".. c #97776C",
"X. c #96766B",
"o. c #97776B",
"O. c #654C49",
"+. c #533E40",
"@. c #513F45",
"#. c #654D4A",
"$. c #876960",
"%. c #98786C",
"&. c #866960",
"*. c #513F44",
"=. c #584446",
"-. c #6C524C",
";. c #6C514C",
":. c #6B514C",
">. c #584346",
",. c #514046",
"<. c #664D4A",
"1. c #6D524C",
"2. c #4F3F47",
"3. c #664B45",
"4. c #664A45",
"5. c #504047",
"6. c #544145",
"7. c #5B4242",
"8. c #5F4340",
"9. c #5E4340",
"0. c #534045",
"q. c #785A52",
"w. c #876457",
"e. c #866356",
"r. c #574347",
"t. c #674948",
"y. c #6F4C48",
"u. c #574247",
"i. c #8C695D",
"p. c #735956",
"a. c #524047",
"s. c #624749",
"d. c #714E4B",
"f. c #78524C",
"g. c #78514C",
"h. c #724F4C",
"j. c #664A4B",
"k. c #5B454A",
"l. c #89665B",
"z. c #926D5E",
"x. c #977263",
"c. c #97766B",
"v. c #846964",
"b. c #564247",
"n. c #664949",
"m. c #76504C",
"M. c #77514C",
"N. c #7A534E",
"B. c #7E5552",
"V. c #735150",
"C. c #5C454A",
"Z. c #665254",
"A. c #584347",
"S. c #6D4C4A",
"D. c #79524C",
"F. c #76514C",
"G. c #7E544F",
"H. c #8A5B55",
"J. c #7F5654",
"K. c #60474B",
"L. c #665154",
"P. c #584247",
"I. c #7D544F",
"U. c #7F5653",
"Y. c #895B55",
"T. c #7E5653",
"R. c #5F474B",
"E. c #7B534E",
"W. c #825751",
"Q. c #8B5C56",
"!. c #835852",
"~. c #8E5E57",
"^. c #856862",
"/. c #574246",
"(. c #674947",
"). c #744F4A",
"_. c #7A534D",
"`. c #815751",
"'. c #8A5C56",
"]. c #8C5C56",
"[. c #855953",
"{. c #74504E",
"}. c #5C4549",
"|. c #5B4342",
" X c #6B4A46",
".X c #7F5650",
"XX c #8E5E58",
"oX c #704D49",
"OX c #604544",
"+X c #524045",
"@X c #544041",
"#X c #614644",
"$X c #76514D",
"%X c #805651",
"&X c #815651",
"*X c #574244",
"=X c #664844",
"-X c #514045",
";X c #514048",
":X c #553F3F",
">X c #573F3C",
",X c #563F3C",
"<X c #564040",
"1X c #58403D",
"2X c #57403D",
"3X c white",
/* pixels */
"  . X o O + + + + O o @ .   # $ % . @ o O + + + + O o @ .   # & ",
". * = O O + + + + - O ; : > , < 1 * 2 O O + + + + - O ; : > 3 4 ",
"X = 5 + + + + + + + + 6 7 8 > 9 0 q w + + + + + + + + 6 7 8 e r ",
"o O + + + + + + + + t y u i p . @ a O + + + + + + + t y u i s d ",
"O O + + + + + + + + f g h j k . @ l O + + + + + + + f g h z x d ",
"+ + + + + + + + + + f g c v b . n o O + + + + + + + f g c v p d ",
"+ + + + + + + + + + f g c v b . n o O + + + + + + + f g c v p d ",
"+ + + + + + + + + + t g c v b . n o O + + + + + + + t g c v p d ",
"+ + + + + + + + + m t M c v b . n o O + + + + + + m t M c v p d ",
"N - + + + + + + m N B V C z k . @ l O + + + + + m N B V C z x d ",
"N O + t f f f t t B Z C A j k . @ a O t f f f t t B Z C A z x d ",
"S D F G g g g g M V H J K L P 9 I U Y G g g g g M V H J K T R r ",
"E W Q u ! c c c c C ~ ^ / ( ) _ ` ' ] u ! c c c c C ~ ^ / ( [ 4 ",
"{ } |  ...X.X.X.X.o.o.| O.+.@.@.+.#.$.%...X.X.X.X... .&.O.+.*.& ",
"*.=.#.-.;.:.:.:.:.;.;.#.>.@.,.,.@.=.<.1.1.-.-.-.-.-.1.<.=.@.,.& ",
"2._ ` 3.3.4.4.4.4.3.3.` _ 2.5.& 5.6.7.8.8.9.9.9.9.8.8.7.0.5.& & ",
"% 9 q.w.S e.e.e.e.S w.I 9 % 4 5.4 r.t.y.y.y.y.y.y.y.y.t.u.2.5.& ",
". * q a l N N N N l a i.p.> 3 a.[ s.d.f.f.g.g.g.g.f.f.h.j.k.< & ",
"@ l.z.N N O O O O O O x.c.v.e b.n.d.m.g.g.M.M.M.M.M.M.N.B.V.C.4 ",
"o O + + + + + + + + t y u i Z.A.S.D.g.M.M.M.M.M.M.M.F.G.H.J.K.# ",
"O O + + + + + + + + f g h j L.P.S.f.g.M.M.M.M.M.M.M.F.I.H.U.K.# ",
"+ + + + + + + + + + f g c v p P.S.g.g.M.M.M.M.M.M.M.F.I.Y.T.R.2.",
"+ + + + + + + + + + f g c v p P.S.g.g.M.M.M.M.M.M.M.F.I.Y.T.R.2.",
"+ + + + + + + + + + t g c v p P.S.g.g.M.M.M.M.M.M.M.F.I.Y.T.R.2.",
"+ + + + + + + + + m t M c v p P.S.g.g.M.M.M.M.M.M.M.m.I.Y.T.R.2.",
"N - + + + + + + m N B V C j p P.S.f.M.M.M.M.M.M.M.g.E.W.Q.U.K.# ",
"N O + t f f f t t B Z C A i p A.S.f.M.F.F.F.F.F.m.E.!.Q.~.U.K.# ",
"S D F G g g g g M V H J K ^.R /.(.)._.I.I.I.I.I.I.`.'.].[.{.}.4 ",
"E W Q u ! c c c c C ~ ^ / ( ) 0.|. X.XH.H.Y.Y.Y.Y.Q.XX[.oXOX_ 5.",
"{ } |  .o.X.X.X.X.o.o.| O.+.@.+X@X#X$X`.`.%X%X%X%X&X`.F.OX@X+X& ",
"*.=.<.1.1.-.-.-.-.1.1.<.=.@.,.& +X*X#X=X=X=X=X=X=X=X=X#X*X-X,.& ",
";X+X:X>X>X,X,X,X,X>X>X:X+X& & & & +X<X1X2X2X2X2X2X2X1X<X+X& & & "
};
