/* XPM */
static char *result[] = {
/* columns rows colors chars-per-pixel */
"32 32 4 1 ",
"  c #514047",
". c #503F46",
"X c #4E3C43",
"o c white",
/* pixels */
"                                ",
"                                ",
"                                ",
"                        ..      ",
"                       .XX.     ",
"          ..           .XX.     ",
"         .XX.           ..      ",
"         .XX.                   ",
"          ..                    ",
"                                ",
"                                ",
"                                ",
"                                ",
"                  ..            ",
"                 .XX.           ",
"                 .XX.           ",
"                  ..            ",
"          ..                    ",
"         .XX.                   ",
"         .XX.         ..        ",
"          ..         .XX.       ",
"        ..           .XX.       ",
"       .XX.           ..        ",
"       .XX.                     ",
"        ..                      ",
"                                ",
"                                ",
"                                ",
"                                ",
"                                ",
"                                ",
"                                "
};
