/* XPM */
static char *result[] = {
/* columns rows colors chars-per-pixel */
"32 32 93 2 ",
"   c #514047",
".  c #504047",
"X  c #4F3F47",
"o  c #594448",
"O  c #6E4D4B",
"+  c #78514C",
"@  c #6D4D4B",
"#  c #534147",
"$  c #584348",
"%  c #5A4448",
"&  c #614749",
"*  c #704E4B",
"=  c #77514C",
"-  c #594348",
";  c #503F47",
":  c #574348",
">  c #664A4A",
",  c #75504C",
"<  c #74504C",
"1  c #6F4E4B",
"2  c #6D4C4A",
"3  c #5B4448",
"4  c #624749",
"5  c #714E4B",
"6  c #79524C",
"7  c #78524C",
"8  c #79524D",
"9  c #7C544E",
"0  c #7D544F",
"q  c #674A4A",
"w  c #6F4D4B",
"e  c #76504C",
"r  c #7B534E",
"t  c #845852",
"y  c #895B55",
"u  c #7A524C",
"i  c #76514C",
"p  c #7C544F",
"a  c #885A55",
"s  c #8E5E58",
"d  c #885A54",
"f  c #815651",
"g  c #8A5B55",
"h  c #684A4A",
"j  c #835852",
"k  c #8D5D57",
"l  c #5B4548",
"z  c #584347",
"x  c #684A48",
"c  c #744F4A",
"v  c #7A534D",
"b  c #815751",
"n  c #8A5C56",
"m  c #8B5C56",
"M  c #845853",
"N  c #805651",
"B  c #544145",
"V  c #5C4342",
"C  c #6B4A46",
"Z  c #7F5650",
"A  c #6F4D49",
"S  c #644743",
"D  c #524045",
"F  c #544041",
"G  c #614644",
"H  c #77514D",
"J  c #825751",
"K  c #604544",
"L  c #553F3F",
"P  c #514046",
"I  c #574244",
"U  c #674844",
"Y  c #664844",
"T  c #524044",
"R  c #554041",
"E  c #56403F",
"W  c #55403F",
"Q  c #554040",
"!  c #564040",
"~  c #554042",
"^  c #513F44",
"/  c #514044",
"(  c #534148",
")  c #5C4549",
"_  c #5E464A",
"`  c #60474B",
"'  c #724F4D",
"]  c #7B5451",
"[  c #7F5653",
"{  c #7E544F",
"}  c #8F5E58",
"|  c #8E5D57",
" . c white",
/* pixels */
"                                        . X X o O + + + + @ o X ",
"                      . .           . # $ % o & * + = = + * & - ",
"                    . . . .       . ; : > O O * , = = = = < 1 2 ",
"                  # $ 3 3 $ #     # : 4 5 6 7 + = = = = = 8 9 0 ",
"                . $ q w w q $ . . $ q 5 e + + = = = = = = r t y ",
"              . . 3 w u u w 3 ; ; % w 6 + = = = = = = = i p a s ",
"        . .   . . 3 w u u w 3 ; ; % O 7 + = = = = = = = e p d s ",
"      # $ $ # . . $ q w w q $ ; ; % O 7 = = = = = = = + r f g s ",
"    . $ h h $ . . # $ 3 3 $ # . . % O 7 = i i i i i e r j g k s ",
"  . . l * * l . .   . ; . .     . z x c v 0 0 0 0 0 0 b n m M N ",
"  . . l * * l . .   ; ; .         B V C Z g g y y y y m s M A S ",
"    . $ h h $ . . # - - #         D F G H J J b b b b J J i K L ",
"      # $ $ # . . - h h - .       P D I G U Y Y Y Y Y Y Y G I T ",
"        . .     . - h h - .           D R E W Q Q Q ! E E ~ D   ",
"                  # - - #             P D T T ^ ^ / T T T D     ",
"                    . .                   ( $ % % $ # . . . . . ",
"                                        . $ q w w q : X ; . ; ; ",
"              . .                     . ; % O 6 6 5 & o % ) _ ` ",
"            . . . .                   . X % O 6 7 , * @ @ ' ] [ ",
"          # $ 3 3 $ #                 # : & * + = = + + = { y } ",
"        . $ q w w q $ .             . $ q 5 , = = = = = = 0 y } ",
"      . . % w 6 6 w % . .         . . % w 6 + = = = = = i p d | ",
"      . . % O 6 6 O % . .         . . % O 7 + = = = = = e p d | ",
"      . . % O 6 6 O % . .         . . % O 7 = = = = = + r f g s ",
"      . . % w 6 6 w % . .         . . % O 7 = i i i e r j g k s ",
"        . $ q w w q $ .             . z x c v 0 0 0 0 b n m M N ",
"          # $ 3 3 $ #                 B V C Z g g y y m s M A S ",
"            . . . .                   D F G H J J b b J J i K L ",
"              . .                     P D I G U Y Y Y Y Y G I T ",
"                                          D ~ ! ! ! ! ! ! ~ D   ",
"                                            D T T D D T T D     ",
"                                                                "
};
