/* XPM */
static char *result[] = {
/* columns rows colors chars-per-pixel */
"32 32 108 2 ",
"   c #4F3F47",
".  c #594448",
"X  c #6D4D4B",
"o  c #78514C",
"O  c #77514C",
"+  c #594348",
"@  c #4F3F46",
"#  c #504047",
"$  c #6E4D4B",
"%  c #514047",
"&  c #614749",
"*  c #704E4B",
"=  c #714F4C",
"-  c #65494B",
";  c #5B454A",
":  c #544148",
">  c #524147",
",  c #574348",
"<  c #75504C",
"1  c #79524E",
"2  c #7D5552",
"3  c #735050",
"4  c #574248",
"5  c #66494A",
"6  c #5C454A",
"7  c #503F47",
"8  c #76514C",
"9  c #7E544F",
"0  c #8A5B55",
"q  c #805754",
"w  c #5F474B",
"e  c #79524C",
"r  c #7F5654",
"t  c #60474B",
"y  c #7D544F",
"u  c #78524C",
"i  c #7F5653",
"p  c #895B55",
"a  c #7E5653",
"s  c #6D4C4B",
"d  c #76504C",
"f  c #7B534E",
"g  c #825751",
"h  c #8B5C56",
"j  c #835852",
"k  c #8E5E57",
"l  c #574247",
"z  c #674948",
"x  c #744F4A",
"c  c #7A534D",
"v  c #815751",
"b  c #8A5C56",
"n  c #8C5C56",
"m  c #855953",
"M  c #74504E",
"N  c #5C4549",
"B  c #534045",
"V  c #5B4342",
"C  c #6B4A46",
"Z  c #7F5650",
"A  c #8E5E58",
"S  c #704D49",
"D  c #604544",
"F  c #554246",
"G  c #503F45",
"H  c #533F41",
"J  c #614644",
"K  c #76514D",
"L  c #815651",
"P  c #544041",
"I  c #524045",
"U  c #503F46",
"Y  c #513F45",
"T  c #574244",
"R  c #664844",
"E  c #654844",
"W  c #604644",
"Q  c #514045",
"!  c #514046",
"~  c #544146",
"^  c #5F4441",
"/  c #544145",
"(  c #574347",
")  c #674A48",
"_  c #704D48",
"`  c #6F4D48",
"'  c #564248",
"]  c #624749",
"[  c #714E4B",
"{  c #724F4C",
"}  c #664A4B",
"|  c #544248",
" . c #7A534E",
".. c #7E5552",
"X. c #735150",
"o. c #734F4A",
"O. c #74514E",
"+. c #6A4A46",
"@. c #7F5550",
"#. c #554146",
"$. c #55403F",
"%. c #805651",
"&. c #574245",
"*. c #514048",
"=. c #564040",
"-. c #58403D",
";. c #57403D",
":. c white",
/* pixels */
"  . X o o O O O O o o X + @ # #   . $ o o O O O O o o X +   # % ",
". & * o O O O O O O o = - ; : > , & * o O O O O O O o = - ; : % ",
"X * < O O O O O O O O 1 2 3 ; 4 5 * < O O O O O O O O 1 2 3 6 7 ",
"o o O O O O O O O O 8 9 0 q w . $ e o O O O O O O O 8 9 0 r t @ ",
"o O O O O O O O O O 8 y 0 r w + X u o O O O O O O O 8 y 0 i t @ ",
"O O O O O O O O O O 8 y p a w + s o o O O O O O O O 8 y p a w   ",
"O O O O O O O O O O 8 y p a w + s o o O O O O O O O 8 y p a w   ",
"O O O O O O O O O O 8 y p a w + s o o O O O O O O O 8 y p a w   ",
"O O O O O O O O O O 8 y p a w + s o o O O O O O O O d y p a w   ",
"O O O O O O O O O O 8 y p a w + X u O O O O O O O o f g h i t @ ",
"O O O O O O O O O O 8 y p a w . $ u O 8 8 8 8 8 d f j h k i t @ ",
"O O O O O O O O O O 8 y p i w l z x c y y y y y y v b n m M N 7 ",
"O O O O O O O O O O 8 y p i w B V C Z 0 0 p p p p h A m S D F # ",
"O O O O O O O O O O 8 y p r t G H J K g v L L L L v v K D P I % ",
"O O O O O O O O O O 8 y p i t U Y T J R E E E E E E E W T Q ! % ",
"O O O O O O O O O O 8 y p i t     ~ V ^ ^ ^ ^ ^ ^ ^ ^ V / # % % ",
"O O O O O O O O O O 8 y p i t     ( ) _ ` ` ` ` ` ` _ z (   # % ",
"O O O O O O O O O O 8 y p i t % ' ] [ u u o o o o u u { } ; | % ",
"O O O O O O O O O O 8 y p i w ' 5 [ d o o O O O O O O  ...X.6 7 ",
"O O O O O O O O O O 8 y p a w . $ e o O O O O O O O 8 9 0 r t @ ",
"O O O O O O O O O O 8 y p a w + X u o O O O O O O O 8 y 0 i t @ ",
"O O O O O O O O O O 8 y p a w + s o o O O O O O O O 8 y p a w   ",
"O O O O O O O O O O 8 y p a w + s o o O O O O O O O 8 y p a w   ",
"O O O O O O O O O O 8 y p a w + s o o O O O O O O O 8 y p a w   ",
"O O O O O O O O O O d y p a w + s o o O O O O O O O d y p a w   ",
"O O O O O O O O O o f g h r w + X u O O O O O O O o f g h i t @ ",
"o O O 8 8 8 8 8 d f j h k r w . X u O 8 8 8 8 8 d f j h k i t @ ",
"` o.c y y y y y y v b n m O.N ( z x c y y y y y y v b n m M N 7 ",
"^ +.@.0 0 p p p p h A m S D #./ V C Z 0 0 p p p p h A m S D F # ",
"$.W K v v %.%.%.%.L v 8 D P Q I P J K v v %.%.%.%.L v 8 D P I % ",
"I &.J R R R R R R R R J T Q ! % I T J R R R R R R R R J T Q ! % ",
"*.I =.-.;.;.;.;.;.;.-.=.I % % % % I =.-.;.;.;.;.;.;.-.=.I % % % "
};
