/* XPM */
static char *result[] = {
/* columns rows colors chars-per-pixel */
"32 32 199 2 ",
"   c #4F3F47",
".  c #594448",
"X  c #6D4D4B",
"o  c #78514C",
"O  c #77514C",
"+  c #594348",
"@  c #504047",
"#  c #4F3F46",
"$  c #4E3E46",
"%  c #604A4C",
"&  c #856359",
"*  c #987060",
"=  c #97705F",
"-  c #966F5F",
";  c #4D3D45",
":  c #514047",
">  c #614749",
",  c #704E4B",
"<  c #714F4C",
"1  c #65494B",
"2  c #5B454A",
"3  c #544148",
"4  c #544248",
"5  c #5C474B",
"6  c #6E5451",
"7  c #8A665B",
"8  c #976F5F",
"9  c #8B685C",
"0  c #725856",
"q  c #604C50",
"w  c #55444A",
"e  c #503F47",
"r  c #75504C",
"t  c #79524E",
"y  c #7D5552",
"u  c #725050",
"i  c #5B444A",
"p  c #5C484B",
"a  c #775A54",
"s  c #8A675B",
"d  c #936D5E",
"f  c #967163",
"g  c #96756A",
"h  c #836863",
"j  c #614D50",
"k  c #4F3E46",
"l  c #76514C",
"z  c #7E544F",
"x  c #8A5B55",
"c  c #7F5653",
"v  c #5F464B",
"b  c #614B4D",
"n  c #866459",
"m  c #997160",
"M  c #956E5E",
"N  c #9D7666",
"B  c #A98475",
"V  c #96776E",
"C  c #675253",
"Z  c #4E3E45",
"A  c #7D544F",
"S  c #5E464B",
"D  c #604B4D",
"F  c #856459",
"G  c #987160",
"H  c #966E5E",
"J  c #9C7666",
"K  c #A88474",
"L  c #95766E",
"P  c #675153",
"I  c #895B55",
"U  c #7E5653",
"Y  c #5E464A",
"T  c #604B4C",
"R  c #846359",
"E  c #A78374",
"W  c #94766D",
"Q  c #665153",
"!  c #76504C",
"~  c #966F5E",
"^  c #9C7566",
"/  c #7B534E",
"(  c #825751",
")  c #8B5C56",
"_  c #977060",
"`  c #997363",
"'  c #A07B6B",
"]  c #A98576",
"[  c #835852",
"{  c #8E5E57",
"}  c #86645A",
"|  c #A17D6E",
" . c #AD897A",
".. c #6F4D48",
"X. c #734F4A",
"o. c #7A534D",
"O. c #815751",
"+. c #8A5C56",
"@. c #8C5C56",
"#. c #855953",
"$. c #74504E",
"%. c #5B4449",
"&. c #5D484A",
"*. c #795A53",
"=. c #8E695B",
"-. c #987263",
";. c #9D7667",
":. c #A88476",
">. c #A88578",
",. c #9E7C70",
"<. c #856861",
"1. c #614C4F",
"2. c #5F4441",
"3. c #6A4A46",
"4. c #7F5550",
"5. c #8E5E58",
"6. c #704D49",
"7. c #5F4544",
"8. c #554146",
"9. c #554246",
"0. c #614845",
"q. c #785A51",
"w. c #987669",
"e. c #A88475",
"r. c #AC897A",
"t. c #9D7C70",
"y. c #7D6058",
"u. c #644C4A",
"i. c #574348",
"p. c #55403F",
"a. c #604644",
"s. c #76514D",
"d. c #815651",
"f. c #604544",
"g. c #544041",
"h. c #514045",
"j. c #513F45",
"k. c #533E40",
"l. c #654D4A",
"z. c #876960",
"x. c #98786C",
"c. c #97776C",
"v. c #96766B",
"b. c #98776C",
"n. c #866960",
"m. c #654C49",
"M. c #513F44",
"N. c #524045",
"B. c #574244",
"V. c #664844",
"C. c #654844",
"Z. c #514046",
"A. c #584446",
"S. c #664D4A",
"D. c #6D524C",
"F. c #6C524C",
"G. c #544146",
"H. c #5B4342",
"J. c #544145",
"K. c #5B4242",
"L. c #5F4340",
"P. c #5E4340",
"I. c #534045",
"U. c #574347",
"Y. c #674948",
"T. c #704D48",
"R. c #6F4C48",
"E. c #574247",
"W. c #78524C",
"Q. c #724F4C",
"!. c #664A4B",
"~. c #524147",
"^. c #624749",
"/. c #714E4B",
"(. c #6E4D4B",
"). c #7A534E",
"_. c #7E5552",
"`. c #735150",
"'. c #66494A",
"]. c #5C454A",
"[. c #805754",
"{. c #5F474B",
"}. c #79524C",
"|. c #7F5654",
" X c #60474B",
".X c #6D4C4B",
"XX c #74514E",
"oX c #5C4549",
"OX c #744F4A",
"+X c #6B4A46",
"@X c #7F5650",
"#X c #805651",
"$X c #614644",
"%X c #574245",
"&X c #514048",
"*X c #564040",
"=X c #58403D",
"-X c #57403D",
";X c white",
/* pixels */
"  . X o o O O O O o o X +   @ # $ % & * = - - - - = * & % ; # : ",
". > , o O O O O O O o < 1 2 3 4 5 6 7 = = - - - - 8 = 9 0 q w e ",
"X , r O O O O O O O O t y u i p a s d - - - - - - - - f g h j k ",
"o o O O O O O O O O l z x c v b n m = - - - - - - - M N B V C Z ",
"o O O O O O O O O O l A x c S D F G = - - - - - - - H J K L P Z ",
"O O O O O O O O O O l A I U Y T R * = - - - - - - - H J E W Q Z ",
"O O O O O O O O O O l A I U Y T R * = - - - - - - - H J E W Q Z ",
"O O O O O O O O O O l A I U Y T R * = - - - - - - - M J E W Q Z ",
"O O O O O O O O O O ! A I U Y T R * = - - - - - - ~ M ^ E W Q Z ",
"O O O O O O O O O o / ( ) U S D F G = - - - - - ~ _ ` ' ] L P Z ",
"o O O l l l l l ! / [ ) { c Y b } m = M H H H M M ` | ]  .L P Z ",
"..X.o.A A A A A A O.+.@.#.$.%.&.*.=.-.;.J J J J ^ ' :.>.,.<.1.k ",
"2.3.4.x x I I I I ) 5.#.6.7.8.9.0.q.w.B e.E E E E ] r.t.y.u.i.e ",
"p.a.s.( O.d.d.d.d.O.O.s.f.g.h.j.k.l.z.x.c.v.v.v.v.c.b.n.m.k.M.: ",
"N.B.a.V.C.C.C.C.C.C.C.a.B.h.Z.Z.j.A.S.D.D.F.F.F.F.F.D.S.A.j.Z.: ",
"@ G.H.2.2.2.2.2.2.2.2.H.J.@ : : @ J.K.L.L.P.P.P.P.L.L.K.I.@ : : ",
"  U.Y.T.............T.Y.U.  @ @ e U.Y.R.R.R.R.R.R.R.R.Y.E.  @ : ",
". > , W.W.o o o o W.W.Q.!.2 3 ~.i.^./.W.W.o o o o W.W.Q.!.2 4 : ",
"(., r o o O O O O O O )._.`.2 i.'./.! o o O O O O O O )._.`.].e ",
"o o O O O O O O O O l z x [.{.. (.}.o O O O O O O O l z x |. X# ",
"o O O O O O O O O O l A x |.{.+ X W.o O O O O O O O l A x c  X# ",
"O O O O O O O O O O l A I U {.+ .Xo o O O O O O O O l A I U {.  ",
"O O O O O O O O O O l A I U {.+ .Xo o O O O O O O O l A I U {.  ",
"O O O O O O O O O O l A I U {.+ .Xo o O O O O O O O l A I U {.  ",
"O O O O O O O O O O ! A I U {.+ .Xo o O O O O O O O ! A I U {.  ",
"O O O O O O O O O o / ( ) |.{.+ X W.O O O O O O O o / ( ) c  X# ",
"o O O l l l l l ! / [ ) { |.{.. X W.O l l l l l ! / [ ) { c  X# ",
"..X.o.A A A A A A O.+.@.#.XXoXU.Y.OXo.A A A A A A O.+.@.#.$.oXe ",
"2.3.4.x x I I I I ) 5.#.6.f.8.J.H.+X@Xx x I I I I ) 5.#.6.f.9.@ ",
"p.a.s.O.O.#X#X#X#Xd.O.l f.g.h.N.g.$Xs.O.O.#X#X#X#Xd.O.l f.g.N.: ",
"N.%X$XV.V.V.V.V.V.V.V.$XB.h.Z.: N.B.$XV.V.V.V.V.V.V.V.$XB.h.Z.: ",
"&XN.*X=X-X-X-X-X-X-X=X*XN.: : : : N.*X=X-X-X-X-X-X-X=X*XN.: : : "
};
