/* XPM */
static char *result[] = {
/* columns rows colors chars-per-pixel */
"32 32 201 2 ",
"   c #4D3D45",
".  c #604A4C",
"X  c #846359",
"o  c #987060",
"O  c #97705F",
"+  c #966F5F",
"@  c #856359",
"#  c #4F3F46",
"$  c #504047",
"%  c #4F3F47",
"&  c #594448",
"*  c #6E4D4B",
"=  c #78514C",
"-  c #77514C",
";  c #6D4D4B",
":  c #594348",
">  c #514047",
",  c #6E5451",
"<  c #89665A",
"1  c #976F5F",
"2  c #8B685C",
"3  c #725856",
"4  c #604C50",
"5  c #55434A",
"6  c #524047",
"7  c #574248",
"8  c #614749",
"9  c #704E4B",
"0  c #714F4C",
"q  c #65494B",
"w  c #5B454A",
"e  c #544148",
"r  c #926C5D",
"t  c #967163",
"y  c #96756A",
"u  c #836864",
"i  c #604D50",
"p  c #564247",
"a  c #654949",
"s  c #75504C",
"d  c #79524E",
"f  c #7D5552",
"g  c #735050",
"h  c #5C454A",
"j  c #503F47",
"k  c #956E5E",
"l  c #9D7666",
"z  c #A98475",
"x  c #96776E",
"c  c #665254",
"v  c #584347",
"b  c #6D4C4A",
"n  c #79524C",
"m  c #76514C",
"M  c #7E544F",
"N  c #8A5B55",
"B  c #7F5654",
"V  c #60474B",
"C  c #966E5E",
"Z  c #9C7666",
"A  c #A88474",
"S  c #95776E",
"D  c #665154",
"F  c #584247",
"G  c #78524C",
"H  c #7D544F",
"J  c #7F5653",
"K  c #A78374",
"L  c #94766D",
"P  c #665153",
"I  c #895B55",
"U  c #7E5653",
"Y  c #5F474B",
"T  c #966F5E",
"R  c #9C7566",
"E  c #76504C",
"W  c #977060",
"Q  c #997363",
"!  c #A07B6B",
"~  c #A98576",
"^  c #7B534E",
"/  c #825751",
"(  c #8B5C56",
")  c #A17D6E",
"_  c #AD897A",
"`  c #835852",
"'  c #8E5E57",
"]  c #876356",
"[  c #8C685A",
"{  c #977162",
"}  c #9D7667",
"|  c #A88476",
" . c #A88578",
".. c #9E7C70",
"X. c #856862",
"o. c #614C4F",
"O. c #574246",
"+. c #674947",
"@. c #744F4A",
"#. c #7A534D",
"$. c #815751",
"%. c #8A5C56",
"&. c #8C5C56",
"*. c #855953",
"=. c #74504E",
"-. c #5C4549",
";. c #664A44",
":. c #775951",
">. c #977568",
",. c #A88475",
"<. c #AC897A",
"1. c #9D7C70",
"2. c #7D6058",
"3. c #644C4A",
"4. c #564348",
"5. c #534045",
"6. c #5B4342",
"7. c #6B4A46",
"8. c #7F5650",
"9. c #8E5E58",
"0. c #704D49",
"q. c #604544",
"w. c #554246",
"e. c #543E3E",
"r. c #654C4A",
"t. c #866860",
"y. c #98776C",
"u. c #97776C",
"i. c #96766B",
"p. c #97776B",
"a. c #654C49",
"s. c #533E40",
"d. c #513F45",
"f. c #524045",
"g. c #544041",
"h. c #614644",
"j. c #76514D",
"k. c #815651",
"l. c #513F44",
"z. c #584446",
"x. c #654D4A",
"c. c #6C524C",
"v. c #6C514C",
"b. c #6B514C",
"n. c #584346",
"m. c #514046",
"M. c #574244",
"N. c #664844",
"B. c #654844",
"V. c #604644",
"C. c #514045",
"Z. c #604845",
"A. c #664B45",
"S. c #664A45",
"D. c #544146",
"F. c #5F4441",
"G. c #544145",
"H. c #4E3E46",
"J. c #5C474A",
"K. c #785A52",
"L. c #876457",
"P. c #866356",
"I. c #795A52",
"U. c #574347",
"Y. c #674A48",
"T. c #704D48",
"R. c #6F4D48",
"E. c #674948",
"W. c #8A675B",
"Q. c #997160",
"!. c #987160",
"~. c #8C695D",
"^. c #735956",
"/. c #55444A",
"(. c #574348",
"). c #624749",
"_. c #714E4B",
"`. c #724F4C",
"'. c #664A4B",
"]. c #544248",
"[. c #89665B",
"{. c #926D5E",
"}. c #977263",
"|. c #97766B",
" X c #846964",
".X c #614D50",
"XX c #664949",
"oX c #7A534E",
"OX c #7E5552",
"+X c #735150",
"@X c #805651",
"#X c #664D4A",
"$X c #6D524C",
"%X c #514048",
"&X c #553F3F",
"*X c #573F3C",
"=X c #563F3C",
"-X c #564040",
";X c #58403D",
":X c #57403D",
">X c white",
/* pixels */
"  . X o O + + + + O o @ .   # $ % & * = = - - - - = = ; : % $ > ",
". , < O O + + + + 1 O 2 3 4 5 6 7 8 9 = - - - - - - = 0 q w e > ",
"X < r + + + + + + + + t y u i p a 9 s - - - - - - - - d f g h j ",
"o O + + + + + + + + k l z x c v b n = - - - - - - - m M N B V # ",
"O O + + + + + + + + C Z A S D F b G = - - - - - - - m H N J V # ",
"+ + + + + + + + + + C Z K L P F b = = - - - - - - - m H I U Y % ",
"+ + + + + + + + + + C Z K L P F b = = - - - - - - - m H I U Y % ",
"+ + + + + + + + + + k Z K L P F b = = - - - - - - - m H I U Y % ",
"+ + + + + + + + + T k R K L P F b = = - - - - - - - E H I U Y % ",
"W 1 + + + + + + T W Q ! ~ S P F b G - - - - - - - = ^ / ( J V # ",
"W O + k C C C k k Q ) ~ _ x P v b G - m m m m m E ^ ` ( ' J V # ",
"] [ { } Z Z Z Z R ! |  ...X.o.O.+.@.#.H H H H H H $.%.&.*.=.-.j ",
";.:.>.z ,.K K K K ~ <.1.2.3.4.5.6.7.8.N N I I I I ( 9.*.0.q.w.$ ",
"e.r.t.y.u.i.i.i.i.p.p.t.a.s.d.f.g.h.j./ $.k.k.k.k.$.$.j.q.g.f.> ",
"l.z.x.c.v.b.b.b.b.v.v.x.n.d.m.> f.M.h.N.B.B.B.B.B.B.B.V.M.C.m.> ",
"% w.Z.A.A.S.S.S.S.A.A.Z.w.% $ > $ D.6.F.F.F.F.F.F.F.F.6.G.$ > > ",
"H.J.K.L.] P.P.P.P.] L.I.J.H.j $ j U.Y.T.R.R.R.R.R.R.T.E.U.% $ > ",
". , W.Q.!.W W W W !.Q.~.^.4 /.6 (.)._.G G = = = = G G `.'.w ].> ",
"@ [.{.W W O O O O O O }.|. X.Xp XX_.E = = - - - - - - oXOX+Xh j ",
"o O + + + + + + + + k l z x c v b n = - - - - - - - m M N B V # ",
"O O + + + + + + + + C Z A S D F b G = - - - - - - - m H N J V # ",
"+ + + + + + + + + + C Z K L P F b = = - - - - - - - m H I U Y % ",
"+ + + + + + + + + + C Z K L P F b = = - - - - - - - m H I U Y % ",
"+ + + + + + + + + + k Z K L P F b = = - - - - - - - m H I U Y % ",
"+ + + + + + + + + T k R K L P F b = = - - - - - - - E H I U Y % ",
"W 1 + + + + + + T W Q ! ~ S P F b G - - - - - - - = ^ / ( J V # ",
"W O + k C C C k k Q ) ~ _ x P v b G - m m m m m E ^ ` ( ' J V # ",
"] [ { } Z Z Z Z R ! |  ...X.o.O.+.@.#.H H H H H H $.%.&.*.=.-.j ",
";.:.>.z ,.K K K K ~ <.1.2.3.4.5.6.7.8.N N I I I I ( 9.*.0.q.w.$ ",
"e.r.t.y.p.i.i.i.i.p.p.t.a.s.d.f.g.h.j.$.$.@X@X@X@Xk.$.m q.g.f.> ",
"l.z.#X$X$Xc.c.c.c.$X$X#Xz.d.m.> f.M.h.N.N.N.N.N.N.N.N.h.M.C.m.> ",
"%Xf.&X*X*X=X=X=X=X*X*X&Xf.> > > > f.-X;X:X:X:X:X:X:X;X-Xf.> > > "
};
