/* XPM */
static char *result[] = {
/* columns rows colors chars-per-pixel */
"32 32 205 2 ",
"   c #51434B",
".  c #624F51",
"X  c #84655C",
"o  c #967163",
"O  c #957162",
"+  c #947062",
"@  c #624F50",
"#  c #52434A",
"$  c #53454B",
"%  c #54454C",
"&  c #52444B",
"*  c #634F51",
"=  c #84665D",
"-  c #52444A",
";  c #55464C",
":  c #6F5755",
">  c #88685E",
",  c #957062",
"<  c #8A6A5F",
"1  c #735C5A",
"2  c #625154",
"3  c #59494E",
"4  c #57484D",
"5  c #5F4D4F",
"6  c #705855",
"7  c #89685E",
"8  c #54464C",
"9  c #906D61",
"0  c #947265",
"q  c #94766C",
"w  c #826A66",
"e  c #5F4C4F",
"r  c #775D58",
"t  c #89695E",
"y  c #916E61",
"u  c #826A65",
"i  c #635154",
"p  c #946F61",
"a  c #9A7768",
"s  c #A58375",
"d  c #93786F",
"f  c #685557",
"g  c #634F50",
"h  c #85665C",
"j  c #977263",
"k  c #695657",
"l  c #9A7668",
"z  c #A48375",
"x  c #93776F",
"c  c #A48275",
"v  c #92766E",
"b  c #675557",
"n  c #957163",
"m  c #936F61",
"M  c #997668",
"N  c #A38274",
"B  c #977466",
"V  c #9D7B6D",
"C  c #A68477",
"Z  c #9E7C6F",
"A  c #A58476",
"S  c #A8887A",
"D  c #85665D",
"F  c #967263",
"G  c #86665A",
"H  c #8B6A5E",
"J  c #957265",
"K  c #9A7769",
"L  c #9A7669",
"P  c #A48578",
"I  c #9B7C71",
"U  c #846A64",
"Y  c #635153",
"T  c #795D56",
"R  c #8C6B5E",
"E  c #967365",
"W  c #645153",
"Q  c #53444B",
"!  c #694F4A",
"~  c #785D55",
"^  c #95766A",
"/  c #A58376",
"(  c #A38275",
")  c #A58477",
"_  c #7D635B",
"`  c #67514F",
"'  c #5A494D",
"]  c #59484B",
"[  c #644D4A",
"{  c #795D55",
"}  c #96766B",
"|  c #67514E",
" . c #5A494C",
".. c #584444",
"X. c #68514F",
"o. c #866B63",
"O. c #96786D",
"+. c #95786D",
"@. c #94776D",
"#. c #866B62",
"$. c #68514E",
"%. c #574446",
"&. c #55454A",
"*. c #574546",
"=. c #68524F",
"-. c #554549",
";. c #5C4A4B",
":. c #6F5751",
">. c #6F5651",
",. c #6E5651",
"<. c #5C494B",
"1. c #55464B",
"2. c #57464B",
"3. c #5E4847",
"4. c #624946",
"5. c #58474B",
"6. c #5F4847",
"7. c #53454C",
"8. c #5B484C",
"9. c #694E4D",
"0. c #71514D",
"q. c #70514D",
"w. c #6A4E4D",
"e. c #5D494D",
"r. c #644C4E",
"t. c #725250",
"y. c #795651",
"u. c #795551",
"i. c #735351",
"p. c #684F50",
"a. c #5E4A4F",
"s. c #58474D",
"d. c #56474C",
"f. c #5B484D",
"g. c #644D4E",
"h. c #725350",
"j. c #6F5150",
"k. c #765451",
"l. c #785551",
"z. c #7A5753",
"x. c #7E5956",
"c. c #745555",
"v. c #5E4B4F",
"b. c #5A484D",
"n. c #684E4F",
"m. c #775451",
"M. c #5F4B4F",
"N. c #7E5854",
"B. c #895E59",
"V. c #7F5A58",
"C. c #624C50",
"Z. c #5C494D",
"A. c #885E59",
"S. c #7E5A58",
"D. c #7D5854",
"F. c #614C50",
"G. c #7E5A57",
"H. c #775551",
"J. c #7D5853",
"K. c #7B5753",
"L. c #815A56",
"P. c #895F5A",
"I. c #835B57",
"U. c #8C615B",
"Y. c #71514E",
"T. c #74534F",
"R. c #7A5652",
"E. c #8A605A",
"W. c #845C57",
"Q. c #755553",
"!. c #5F4A4E",
"~. c #75534F",
"^. c #7B5752",
"/. c #5F4B4E",
"(. c #634A46",
"). c #6C4F4B",
"_. c #7E5955",
"`. c #885E5A",
"'. c #875E59",
"]. c #72524E",
"[. c #634B4A",
"{. c #59474B",
"}. c #5F4948",
"|. c #6D4F4B",
" X c #7F5955",
".X c #594645",
"XX c #634B49",
"oX c #765551",
"OX c #805A56",
"+X c #805A55",
"@X c #584647",
"#X c #56464A",
"$X c #644B49",
"%X c #775552",
"&X c #5B484A",
"*X c #644B4A",
"=X c #694D4A",
"-X c #684D4A",
";X c #684D49",
":X c #55464A",
">X c #55464D",
",X c #5A4646",
"<X c #5C4643",
"1X c #5A4645",
"2X c white",
/* pixels */
"  . X o O + + + + O o X @ # $ % & * = o O + + + + O o X @ - $ ; ",
". : > O , + + + + , O < 1 2 3 4 5 6 7 O , + + + + , O < 1 2 3 8 ",
"X > 9 + + + + + + + + 0 q w 2 e r t y + + + + + + + + 0 q u i $ ",
"o O + + + + + + + + p a s d f g h j O + + + + + + + p a s d k & ",
"O , + + + + + + + + p l z x f g X o O + + + + + + + p l z x k & ",
"+ + + + + + + + + + p l c v b @ X n O + + + + + + + p l c v f & ",
"+ + + + + + + + + + p l c v b @ X n O + + + + + + + p l c v f & ",
"+ + + + + + + + + + m M N v b @ X n O + + + + + + + m M N v f & ",
"+ + + + + + + + + + m M N v b @ X n O + + + + + + + m M N v f & ",
"O , + + + + + + + n B V C x f @ X o O + + + + + + n B V C x k & ",
"n O + p p p p m m B Z A S x f g D F , p p p p m m B Z A S x k & ",
"G H J K L M M M M V A P I U Y e T R E K L M M M M V A P I U W Q ",
"! ~ ^ / z ( ( ( ( ) S I _ ` ' ] [ { } / z ( ( ( ( ) S I _ |  .% ",
"..X.o.O.+.@.@.@.@.+.+.#.$.%.&.&.*.=.o.O.+.@.@.@.@.+.+.#.$.%.&.; ",
"-.;.=.:.>.,.,.,.,.>.>.=.<.&.1.1.&.;.=.:.>.,.,.,.,.>.>.=.<.&.1.; ",
"8 2.3.4.4.4.4.4.4.4.4.3.2.8 ; ; 8 5.6.4.4.4.4.4.4.4.4.3.2.8 ; ; ",
"7.8.9.0.0.q.q.q.q.0.0.9.8.7.8 8 % 8.w.0.0.q.q.q.q.0.0.9.8.7.8 ; ",
"e.r.t.y.y.u.u.u.u.u.y.i.p.a.s.d.f.g.h.y.y.u.u.u.u.u.y.i.p.a.s.; ",
"j.t.k.u.u.l.l.l.l.l.l.z.x.c.v.b.n.h.m.u.u.l.l.l.l.l.l.z.x.c.M.% ",
"u.u.l.l.l.l.l.l.l.l.l.N.B.V.C.Z.j.y.u.l.l.l.l.l.l.l.l.N.B.V.C.7.",
"u.l.l.l.l.l.l.l.l.l.l.N.A.V.C.Z.j.y.u.l.l.l.l.l.l.l.l.N.A.S.C.7.",
"l.l.l.l.l.l.l.l.l.l.l.D.A.S.F.Z.j.u.u.l.l.l.l.l.l.l.l.D.A.G.C.7.",
"l.l.l.l.l.l.l.l.l.l.l.D.A.S.F.Z.j.u.u.l.l.l.l.l.l.l.l.D.A.G.C.7.",
"l.l.l.l.l.l.l.l.l.l.H.D.A.S.F.Z.j.u.u.l.l.l.l.l.l.l.H.D.A.G.C.7.",
"l.l.l.l.l.l.l.l.l.l.H.J.A.S.F.Z.j.u.u.l.l.l.l.l.l.l.H.J.A.G.C.7.",
"l.l.l.l.l.l.l.l.l.u.K.L.P.S.C.Z.j.u.l.l.l.l.l.l.l.u.K.L.P.S.C.7.",
"u.l.l.l.l.l.l.H.H.K.I.P.U.S.C.Z.j.y.l.l.l.l.l.H.H.K.I.P.U.S.C.7.",
"Y.T.R.N.D.D.D.D.D.L.P.E.W.Q.!.8.w.~.^.N.D.D.D.D.D.L.P.E.W.Q./.% ",
"(.)._.`.A.'.'.'.'.P.U.W.].[.{.5.}.|. X`.A.'.'.'.'.P.U.W.].[.{.8 ",
".XXXoXL.OX+X+X+X+XOXOXoXXX@X#X#X@X$X%XL.OX+X+X+X+XOXOXoXXX@X#X; ",
"#X&X*X=X-X-X-X-X-X-X;X$X&X:X; ; #X&X*X=X-X-X-X-X-X-X;X$X&X#X1.; ",
">X#X,X<X<X<X<X<X<X<X<X1X#X; ; ; ; #X1X<X<X<X<X<X<X<X<X1X#X; ; ; "
};
