/* XPM */
static char *result[] = {
/* columns rows colors chars-per-pixel */
"32 2 46 1 ",
"  c #5E4143",
". c #6D4646",
"X c #65494E",
"o c #6E4B4C",
"O c #694C4F",
"+ c #6D4E4F",
"@ c #6D5050",
"# c #6D545B",
"$ c #6D555C",
"% c #665964",
"& c #695862",
"* c #6D5D62",
"= c #6B5E66",
"- c #6C616E",
"; c #6C616F",
": c #6B6575",
"> c #6B6676",
", c #6B6777",
"< c #67687B",
"1 c #6B6879",
"2 c #6C6879",
"3 c #6C6C7F",
"4 c #716877",
"5 c #716979",
"6 c #716B7A",
"7 c #716D7E",
"8 c #706E7F",
"9 c #716E7F",
"0 c #666B81",
"q c #656C83",
"w c #6F7489",
"e c #68738C",
"r c #69748E",
"t c #69758E",
"y c #717082",
"u c #717286",
"i c #717387",
"p c #707489",
"a c #71758A",
"s c #71768B",
"d c #70778E",
"f c #727E98",
"g c #727F9A",
"h c #72809A",
"j c #73819B",
"k c None",
/* pixels */
"y8a6s6u97i5s4p,3dwfkgkkkkkkhkjkk",
"=*>@1+-$#;o2.:O&%X< 0kqkkektkrkk"
};
