/* XPM */
static char *result[] = {
/* columns rows colors chars-per-pixel */
"32 32 56 1 ",
"  c #424D63",
". c #424E63",
"X c #424E64",
"o c #434F65",
"O c #455168",
"+ c #4A576E",
"@ c #4B576F",
"# c #4C5971",
"$ c #4C5972",
"% c #4D5A72",
"& c #4D5A73",
"* c #4E5A73",
"= c #4E5B73",
"- c #505C74",
"; c #536076",
": c #556279",
"> c #566278",
", c #566279",
"< c #576379",
"1 c #5B6A85",
"2 c #637290",
"3 c #647390",
"4 c #647391",
"5 c #647491",
"6 c #657491",
"7 c #6E7C97",
"8 c #6E7E9E",
"9 c #6E7F9F",
"0 c #6F7F9F",
"q c #6F7FA0",
"w c #79869F",
"e c #7080A0",
"r c #7080A1",
"t c #7181A1",
"y c #7181A2",
"u c #7C88A0",
"i c #7D8BA8",
"p c #7E8CA9",
"a c #7E8DAA",
"s c #838FA5",
"d c #828FA9",
"f c #8794AF",
"g c #8893A8",
"h c #8895AF",
"j c #8896B0",
"k c #8996B0",
"l c #909CB5",
"z c #919DB6",
"x c #929EB7",
"c c #99A5BC",
"v c #9BA6BD",
"b c #9BA7BE",
"n c #A0ABC0",
"m c #A1ACC1",
"M c #A2ADC2",
"N c None",
/* pixels */
"NNNNNNNNNNNNNNNNNNNNNNNNNNNNNNNN",
"NNNNNNNNNNNNNNNNNNNNNNNNNNNNNNNN",
"NNNNNNNNNNNNNNNNNNNNNNNNNNNNNNNN",
"NNNNNNNNNNNNNNNNNNNNNNNNNNNNNNNN",
"NNNNNNNNNNNNNNNNNNNNNNNNNNNNNNNN",
"NNNNNNNNNNNNNNNNNNNNNNNNNNNNNNNN",
"NNNNNNNNNNNNNNNNNNNNNNNNNNNNNNNN",
"NNNNNNNNNNNNNNNNNNNNNNNNNNNNNNNN",
"NNNNNNNNNNNNNNNNNNNNNNNNNNNNNNNN",
"NNNNNNNNNNNNNNNNNNNNNNNNNNNNNNNN",
"NNNNNNNNNNNNNNNNNNNNNNNNNNNNNNNN",
"NNNNNNNNNNNNNNNNNNNNNNNNNNNNNNNN",
"NNNNNNNNNNNNNNNNNNNNNNNNNNNNNNNN",
"NNNNNNNNNNNNNNNNNNNNNNNNNNNNNNNN",
"NNNNNNNNNNNNNNNNNNNNNNNNNNNNNNNN",
"NNNNNNNNNNNNNNNNNNNNNNNNNNNNNNNN",
"NNNNNNNNNNhhhhhhhhhhhhhhNNNNNNNN",
"NNNNNNNNNNhhhhhhhhhhhhhhNNNNNNNN",
"hhhhhhhkNNkhhhhhhhhhhhhkNNkhhhhh",
"hhhhhhhdNNdhhhhhhhhhhhhdNNdhhhhh",
"fffffhjw,:wkhffffffffhkw:,wjhfff",
"lllllzxu;;uxzllllllllzxu;;uxzlll",
"nnnnnmMg<<gMmnnnnnnnnmMg<<gMmnnn",
"cccccvbs>>sbvccccccccvbs>>sbvccc",
"iiiiipa7--7apiiiiiiiipa7--7apiii",
"88888902##20988888888902##209888",
"888880q2$$2q0888888880q2$$2q0888",
"eeeeert4%%4treeeeeeeert4%%4treee",
"eeeeety5%%5yteeeeeeeety5%%5yteee",
"33333461++16433333333461++164333",
"&&&&&*=@OO@=*&&&&&&&&*=@OO@=*&&&",
".....  XooX  ........  XooX  ..."
};
