/* XPM */
static char *result[] = {
/* columns rows colors chars-per-pixel */
"32 32 30 1 ",
"  c #384254",
". c #384255",
"X c #3D485A",
"o c #3E4A5E",
"O c #3F4A5F",
"+ c #3F4B60",
"@ c #414D63",
"# c #424E64",
"$ c #434F65",
"% c #4D596F",
"& c #546077",
"* c #546078",
"= c #727F97",
"- c #77849D",
"; c #78849D",
": c #78849E",
"> c #8794AE",
", c #8794AF",
"< c #8895AF",
"1 c #8895B0",
"2 c #8996B0",
"3 c #8996B1",
"4 c #8A97B1",
"5 c #8A97B2",
"6 c #8F9CB4",
"7 c #909CB4",
"8 c #9FAABF",
"9 c #A7B1C5",
"0 c #A8B1C5",
"q c None",
/* pixels */
"qqqqqqqqqqqqqqqqqqqqqqqqqqqqqqqq",
"qqqqqqqqqqqqqqqqqqqqqqqqqqqqqqqq",
"qqqqqqqqqqqqqqqqqqqqqqqqqqqqqqqq",
"qqqqqqqqqqqqqqqqqqqqqqqqqqqqqqqq",
"qqqqqqqqqqqqqqqqqqqqqqqqqqqqqqqq",
"qqqqqqqqqqqqqqqqqqqqqqqqqqqqqqqq",
"qqqqqqqqqqqqqqqqqqqqqqqqqqqqqqqq",
"qqqqqqqqqqqqqqqqqqqqqqqqqqqqqqqq",
"qqqqqqqqqqqqqqqqqqqqqqqqqqqqqqqq",
"qqqqqqqqqqqqqqqqqqqqqqqqqqqqqqqq",
"qqqqqqqqqqqqqqqqqqqqqqqqqqqqqqqq",
"qqqqqqqqqqqqqqqqqqqqqqqqqqqqqqqq",
"qqqqqqqqqqqqqqqqqqqqqqqqqqqqqqqq",
"qqqqqqqqqqqqqqqqqqqqqqqqqqqqqqqq",
"qqqqqqqqqqqqqqqqqqqqqqqqqqqqqqqq",
"qqqqqqqqqqqqqqqqqqqqqqqqqqqqqqqq",
"qqqqqqqqqqqqqqqqqqqqqqqqqqqqqqqq",
"qqqqqqqqqqqqqqqqqqqqqqqqqqqqqqqq",
"qqqqqqqqqq99999999999999qqqqqqqq",
"qqqqqqqqqq88888888888888qqqqqqqq",
"99999990qq67777777777776qq099999",
"88888888qq>,,,,,,,,,,,,>qq888888",
"77777777qq,<<<<<<<<<<<<,qq777777",
"11111112qq32222222222223qq211111",
"22222224qq54444444444445qq422222",
"-----;:=qq=:;--------;:=qq=:;---",
"&&&&&&*%XX%*&&&&&&&&&&*%XX%*&&&&",
"@@@@@##o  o##@@@@@@@@##o  o##@@@",
"#######O  O############O  O#####",
"$$$$$$$+..+$$$$$$$$$$$$+..+$$$$$",
"$$$$$$$+..+$$$$$$$$$$$$+..+$$$$$",
"$$$$$$$+..+$$$$$$$$$$$$+..+$$$$$"
};
