/* XPM */
static char *result[] = {
/* columns rows colors chars-per-pixel */
"32 32 78 1 ",
"  c #364052",
". c #364153",
"X c #374153",
"o c #384254",
"O c #384255",
"+ c #384355",
"@ c #3C4659",
"# c #3D485A",
"$ c #3D495D",
"% c #3E495E",
"& c #3E4A5E",
"* c #3F4A5F",
"= c #3F4B5F",
"- c #3F4B60",
"; c #404C62",
": c #414D63",
"> c #444F62",
", c #424E64",
"< c #434F65",
"1 c #495366",
"2 c #495467",
"3 c #4C576D",
"4 c #4D586B",
"5 c #4C586E",
"6 c #4D596F",
"7 c #535F76",
"8 c #536076",
"9 c #546077",
"0 c #546078",
"q c #556178",
"w c #59647A",
"e c #5B667C",
"r c #67738A",
"t c #727E97",
"y c #727F97",
"u c #748098",
"i c #758199",
"p c #76839C",
"a c #77839C",
"s c #77849D",
"d c #78849C",
"f c #78849D",
"g c #78849E",
"h c #78859E",
"j c #7C88A0",
"k c #828FA8",
"l c #8794AE",
"z c #8794AF",
"x c #8893A8",
"c c #8895AF",
"v c #8E98AD",
"b c #8895B0",
"n c #8996B0",
"m c #8996B1",
"M c #8997B1",
"N c #8A97B1",
"B c #8A97B2",
"V c #8B98B2",
"C c #8C99B3",
"Z c #8F9BB4",
"A c #8F9CB4",
"S c #909CB4",
"D c #919DB5",
"F c #919EB6",
"G c #95A1B8",
"H c #9FA9BF",
"J c #9FAABF",
"K c #A0ABC0",
"L c #A1ABC0",
"P c #A1ACC1",
"I c #A4AEC3",
"U c #A6B0C4",
"Y c #A7B1C4",
"T c #A7B1C5",
"R c #A8B1C5",
"E c #A8B2C6",
"W c #A9B3C7",
"Q c None",
/* pixels */
"QQQQQQQQQQQQQQQQQQQQQQQQQQQQQQQQ",
"QQQQQQQQQQQQQQQQQQQQQQQQQQQQQQQQ",
"QQQQQQQQQQQQQQQQQQQQQQQQQQQQQQQQ",
"QQQQQQQQQQQQQQQQQQQQQQQQQQQQQQQQ",
"QQQQQQQQQQQQQQQQQQQQQQQQQQQQQQQQ",
"QQQQQQQQQQQQQQQQQQQQQQQQQQQQQQQQ",
"QQQQQQQQQQQQQQQQQQQQQQQQQQQQQQQQ",
"QQQQQQQQQQQQQQQQQQQQQQQQQQQQQQQQ",
"QQQQQQQQQQQQQQQQQQQQQQQQQQQQQQQQ",
"QQQQQQQQQQQQQQQQQQQQQQQQQQQQQQQQ",
"QQQQQQQQQQQQQQQQQQQQQQQQQQQQQQQQ",
"QQQQQQQQQQQQQQQQQQQQQQQQQQQQQQQQ",
"QQQQQQQQQQQQQQQQQQQQQQQQQQQQQQQQ",
"QQQQQQQQQQQQQQQQQQQQQQQQQQQQQQQQ",
"QQQQQQQQQQQQQQQQQQQQQQQQQQQQQQQQ",
"QQQQQQQQQQQQQQQQQQQQQQQQQQQQQQQQ",
"QQQQQQQQQQQQQQQQQQQQQQQQQQQQQQQQ",
"QQQQQQQQQQQQQQQQQQQQQQQQQQQQQQQQ",
"QQQQQQQQQQQQTTTTTTTTTTQQQQQQQQQQ",
"QQQQQQQQQQQQJJJJJJJJJJQQQQQQQQQQ",
"UUYTTTTTTRQQASSSSSSSSAQQRTTTTTTT",
"UILHJJJJJJQQlzzzzzzzzlQQJJJJJJJJ",
"YLGZASSSSSQQzcccccccczQQSSSSSSSS",
"THZllzzllcQQMnnnnnnnnmQQnbbbbbbb",
"TJAllcccccQQBNNNNNNNNBQQNnnnnnnn",
"TJSzccccbkQQtgfssssfgyQQygfsssss",
"TJSzcccnMd4@5099999906##60999999",
"EKDbnnnBVu1 $,,::::,,&oo&,,:::::",
"WPFnnNNVCi2.%,,,,,,,,*oo*,,,,,,,",
"vxjppaafhr>X*<<<<<<<<-OO-<<<<<<<",
"ewq7788993@o=<<<<<<<<-OO-<<<<<<<",
";;:::::::%o+-<<<<<<<<-OO-<<<<<<<"
};
