/* XPM */
static char *result[] = {
/* columns rows colors chars-per-pixel */
"32 32 34 1 ",
"  c #404C62",
". c #414D63",
"X c #535F76",
"o c #536076",
"O c #556178",
"+ c #59647A",
"@ c #5B667C",
"# c #76839C",
"$ c #77839C",
"% c #7C88A0",
"& c #8794AE",
"* c #8794AF",
"= c #8795AF",
"- c #8893A8",
"; c #8895AF",
": c #8E98AD",
"> c #8895B0",
", c #8996B0",
"< c #8A97B0",
"1 c #8A97B1",
"2 c #8E9AB3",
"3 c #8F9CB4",
"4 c #909CB4",
"5 c #919DB5",
"6 c #919EB6",
"7 c #99A5BB",
"8 c #9FAABF",
"9 c #A0ABC0",
"0 c #A1ACC1",
"q c #A7B1C5",
"w c #A8B1C5",
"e c #A8B2C6",
"r c #A9B3C7",
"t c None",
/* pixels */
"tttttttttttttttttttttttttttttttt",
"tttttttttttttttttttttttttttttttt",
"tttttttttttttttttttttttttttttttt",
"tttttttttttttttttttttttttttttttt",
"tttttttttttttttttttttttttttttttt",
"tttttttttttttttttttttttttttttttt",
"tttttttttttttttttttttttttttttttt",
"tttttttttttttttttttttttttttttttt",
"tttttttttttttttttttttttttttttttt",
"tttttttttttttttttttttttttttttttt",
"tttttttttttttttttttttttttttttttt",
"tttttttttttttttttttttttttttttttt",
"tttttttttttttttttttttttttttttttt",
"tttttttttttttttttttttttttttttttt",
"tttttttttttttttttttttttttttttttt",
"tttttttttttttttttttttttttttttttt",
"tttttttttttttttttttttttttttttttt",
"tttttttttttttttttttttttttttttttt",
"tttttttttttttttttttttttttttt;;;;",
"tttttttttttttttttttttttttttt;;;;",
"tttttttttttttttttttttttttt;;;;=&",
"tttttttttttttttttttttttttt;;;<23",
"tttttttttttttttttttttttttt;;=278",
"tttttttttttttttttttttttttt;;*48w",
"tttttttttttttttttttttttttt;;*48q",
"tttttttttttttttttttttttttt;;*48q",
"tttttttttttttttttttttttttt;;*48q",
"tttttttttttttttttttttttttt,,>59e",
"tttttttttttttttttttttttttt1,,60r",
"tttttttttttttttttttttttttt$##%-:",
"ttttttttttttttttttttttttttoXXO+@",
"tttttttttttttttttttttttttt....  "
};
