/* XPM */
static char *result[] = {
/* columns rows colors chars-per-pixel */
"32 32 60 1 ",
"  c #0C0708",
". c #0E0A0C",
"X c #110C0F",
"o c #130E11",
"O c #151013",
"+ c #12141A",
"@ c #161A22",
"# c #201E27",
"$ c #2D1F27",
"% c #22232D",
"& c #2E222A",
"* c #33252E",
"= c #272631",
"- c #282F3D",
"; c #342730",
": c #352933",
"> c #3B2B35",
", c #3E2F39",
"< c #28303E",
"1 c #43323D",
"2 c #3B3544",
"3 c #333C4E",
"4 c #363F52",
"5 c #413745",
"6 c #374153",
"7 c #394356",
"8 c #3C465B",
"9 c #3F4A5E",
"0 c #3F4A60",
"q c #4B4253",
"w c #404A5E",
"e c #574B5D",
"r c #424E63",
"t c #4D4C61",
"y c #5C4F63",
"u c #435066",
"i c #46536A",
"p c #49566E",
"a c #4A5770",
"s c #4D5972",
"d c #4F5D78",
"f c #535E79",
"g c #54627E",
"h c #5B637F",
"j c #566582",
"k c #5A6682",
"l c #5A6987",
"z c #5C6B8A",
"x c #616784",
"c c #616F8C",
"v c #62708E",
"b c #647495",
"n c #687795",
"m c #687896",
"M c #667798",
"N c #67789A",
"B c #6C7C9D",
"V c #6F7FA0",
"C c #6F80A0",
"Z c #7181A2",
/* pixels */
"u963333333333334rr43333333333333",
"rurrrrurrrrrrrrrrrrrrrrrrrrwrrut",
"rphvvvvcccvzccckpphcvcccvcccvvvc",
"rdnCBmBBBBBVBBVnssnVBBBNBBBBBBCC",
"usnCnccvccbvcMBbssnBMccbvvcvvnBZ",
"9igzhgjjfddddgzhiihzgdddjgjgdglc",
"679uiaii988889r978ww9889iipuw9ww",
"rrr0r090wrrrw998www90rrr00rurwrr",
"vvchpw7wgvvzkjjjjjjkzcch06wahvvc",
"BBZvp9wsvZCBMMMbMbMMBVVcs09abCCm",
"znCvrwgvMMmNnMMMMMnMNNMMbg9rvBnz",
"lvBvssvBMvkfssffsaffsfznBvssvBcl",
"lcBBbvnMMkt2%%22#%22%-dnbnvnBBzl",
"jjcmCBMzft2$  &&..*;X+wkzMBBmvlg",
"ppsgnCmd<@>&. &&.X,,XX-ekNCmgapp",
"0u0svBNp@ &*XX;;Xo51X.*qhNBvsrrr",
"rrrazNbp@.$$.X>1oo51Oo>exbMzarrr",
"rrrazbba@.**XX51oo11oo1yxbMlarrr",
"uuralbba@o1>oo11oo15oo1yxbMlarru",
"uurszbbp@o11oo15oX11XX1yxbclsruu",
"rurszbbp@X**o.*:XX;;Xo1ekbblarru",
"000izbMa@.**X.**X.&*.o1yxbbli09r",
"444rkbbp@X11oo15oX&&.o1yxMbjr444",
"rrrpzbMi@X11o.>>X.**.X>ekbblprrr",
"zcccbbMp+ 25Oo**.o15o ;5kMbvcccc",
"VBVBbbbs2=55==22%:55=%2tkvbMVVBM",
"zbVBbbbzjajjssjfsdjjdajjcvbMBBbc",
"zzMBMbbbbMbbMMbbbbMbMbbbbbbbBBvl",
"zzNVbbbbMbbbMbbbbbbbbbbbbbbMBBcl",
"jlzbxlllllllllllzllzzzlllllzvcjj",
"ipadaaaaaaaaaaaaaaaaaaaaaaaasspi",
"rrrrrrrrrrrrrrrrrrrrr0rrrrrrrrrr"
};
