/* XPM */
static char *result[] = {
/* columns rows colors chars-per-pixel */
"32 32 147 2 ",
"   c #435066",
".  c #3F4B5F",
"X  c #374153",
"o  c #333C4D",
"O  c #333C4E",
"+  c #374154",
"@  c #404B60",
"#  c #434F65",
"$  c #434F64",
"%  c #434E63",
"&  c #434D63",
"*  c #424E64",
"=  c #4A566E",
"-  c #596781",
";  c #616F8C",
":  c #596681",
">  c #49566D",
",  c #616F8B",
"<  c #606F8B",
"1  c #424E63",
"2  c #4E5B74",
"3  c #667593",
"4  c #7181A2",
"5  c #6E7E9E",
"6  c #6C7C9C",
"7  c #4D5A73",
"8  c #6D7D9E",
"9  c #7080A1",
"0  c #7182A2",
"q  c #6E7F9F",
"w  c #657595",
"e  c #607090",
"r  c #617090",
"t  c #4E5B73",
"y  c #7282A3",
"u  c #3E495D",
"i  c #475369",
"p  c #586680",
"a  c #5D6B87",
"s  c #54627E",
"d  c #4F5D78",
"f  c #515E7A",
"g  c #53617E",
"h  c #586580",
"j  c #465269",
"k  c #54617D",
"l  c #5C6A87",
"z  c #374053",
"x  c #3A4357",
"c  c #3F495E",
"v  c #414B60",
"b  c #3E485D",
"n  c #3C465B",
"m  c #3F4A60",
"M  c #394356",
"N  c #424C61",
"B  c #424D62",
"V  c #424C62",
"C  c #61708C",
"Z  c #6B7B9B",
"A  c #7081A1",
"S  c #657492",
"D  c #4D5A72",
"F  c #657592",
"G  c #606F8F",
"H  c #606F8E",
"J  c #657494",
"K  c #667592",
"L  c #5A6988",
"P  c #5F6E8D",
"I  c #677797",
"U  c #61708D",
"Y  c #4C5971",
"T  c #4A576F",
"R  c #5C6A86",
"E  c #637290",
"W  c #5D6C8B",
"Q  c #5A6989",
"!  c #5A6A89",
"~  c #5C6C8B",
"^  c #5F6F8E",
"/  c #596885",
"(  c #455168",
")  c #4B576F",
"_  c #515F79",
"`  c #586684",
"'  c #5B6A89",
"]  c #596784",
"[  c #4A566F",
"{  c #556380",
"}  c #53627E",
"|  c #515F7B",
" . c #505E79",
".. c #505E7A",
"X. c #4C5973",
"o. c #3D485D",
"O. c #4B5872",
"+. c #49566E",
"@. c #404A60",
"#. c #3C475B",
"$. c #3D475C",
"%. c #3C475C",
"&. c #3B4559",
"*. c #384255",
"=. c #364052",
"-. c #46526A",
";. c #434D62",
":. c #424D63",
">. c #6B7B9C",
",. c #6D7D9D",
"<. c #6F80A0",
"1. c #7181A1",
"2. c #60708F",
"3. c #647493",
"4. c #687797",
"5. c #5F6E8E",
"6. c #586786",
"7. c #556481",
"8. c #5E6D8D",
"9. c #677696",
"0. c #596785",
"q. c #5D6C8C",
"w. c #566482",
"e. c #4C5A73",
"r. c #5C6B8A",
"t. c #3E495E",
"y. c #434E65",
"u. c #4C5872",
"i. c #434F66",
"p. c #4F5C77",
"a. c #54627F",
"s. c #525F7B",
"d. c #505D79",
"f. c #384154",
"g. c #445067",
"h. c #434E64",
"j. c #62708D",
"k. c #596782",
"l. c #596888",
"z. c #5E6E8D",
"x. c #616F8D",
"c. c #5C6B8B",
"v. c #586784",
"b. c #54637F",
"n. c #47536B",
"m. c #48556D",
"M. c white",
/* pixels */
"  . X o o O O O O O O O O o o + @ @ + o o O O O O O O O O O O O ",
"# $ % & % % % % % % % % % % & % $ $ % & % % % % % % % % % % & & ",
"* = - ; ; ; ; ; ; ; ; ; ; ; ; : > > : ; ; ; ; ; ; ; ; ; ; , < < ",
"1 2 3 4 5 6 6 6 6 6 6 6 6 5 4 3 7 7 3 4 5 6 6 6 6 6 6 6 6 8 9 0 ",
"* 2 3 q w e r r r r r r e w q 3 t t 3 q w e r r r r r r e w 8 y ",
"u i p a s d d f g g f d d s a h j j h a s d d f g g f d d k l , ",
"z x c v b n n m j j m n n b v c M M c v b n n m j j m n n b @ N ",
"% & B B B B B B * * B B B B B B & & B B B B B B * * B B B B B V ",
"C ; ; , ; C C : > > : C C ; , ; ; ; ; , ; C C : > > : C C ; , , ",
"Z Z Z Z Z 8 A S D D F 4 8 Z Z Z Z Z Z Z Z 8 A S D D S A 8 Z Z Z ",
"G G G H H J 8 S D D K 5 J H H G G G G H H J 8 S D D S 8 J H H G ",
"L L L L L P I U Y T R E W L L L L L L L L P I U Y Y U I P L L L ",
"L Q ! ! ! ~ ^ / T ( ) _ ` ' ' ! Q Q ! ! ! ~ ^ ] [ [ ] ^ ~ ! ! ' ",
"{ } |  . .....X.# u o.* X.f ..| s s |  . .....O.* * O..... . . .",
"+.j @.#.#.$.%.&.*.z =.*.&.$.#.@ -.-.@ #.#.$.%.&.*.*.&.%.$.$.$.$.",
"* * B B B B B ;.& % % & ;.B B B * * B B B B B ;.& & ;.B B B B B ",
"1 = - C C ; ; ; ; C C ; ; C C : > > : C C ; ; ; ; ; ; ; ; ; , < ",
":.t S A 8 Z >.6 Z Z Z Z Z 8 A S D D S A 8 Z Z Z Z Z Z Z Z ,.<.1.",
":.t S 8 J G G 2.G G G H H J 8 S D D S 8 J H H G G G G H H 3.6 1.",
"* D U 4.5.6.7.7.6.L L L L P I U Y Y U I P L L L L L L L L 8.9.Z ",
"* T 0.G q.w.e.e.w.' ' ! ! ~ ^ ] [ [ ] ^ ~ ! ! ! Q Q ! ! ! r.P G ",
"t.y.O.f f u.* i.p.a.s. . .....O.* * O..... . .| s s |  . . .d.d.",
"z *.&.$.$.&.f.&.g.-.@ #.#.$.%.&.*.*.&.%.$.#.#.@ -.-.@ #.#.%.#.#.",
"% & ;.B B B ;.% h.* B B B B B ;.& & ;.B B B B B * * B B B B B B ",
"C ; ; ; ; C j.k.> > : C C ; ; ; ; ; ; ; ; C C : > > : C C ; ; ; ",
"Z Z Z Z Z 8 A S D D S A 8 Z Z Z Z Z Z Z Z 8 A S D D S A 8 Z Z Z ",
"G G G H H J 8 S D D S 8 J H H G G G G H H J 8 S D D S 8 J H H G ",
"L L L L l.z.I x.Y Y x.I z.l.L L L L L L l.z.I x.Y Y x.I z.l.L L ",
"L L L L L c.5.v.+.+.v.5.c.L L L L L L L L c.5.v.+.+.v.5.c.L L L ",
"a.a.a.a.a.b.a.d n.n.d a.b.a.a.a.a.a.a.a.a.b.a.d n.n.d a.b.a.a.a.",
"m.m.m.m.m.m.m.n.g.g.n.m.m.m.m.m.m.m.m.m.m.m.m.n.g.g.n.m.m.m.m.m.",
"* * * * * * * * # # * * * * * * * * * * * * * * # # * * * * * * "
};
