/* XPM */
static char *result[] = {
/* columns rows colors chars-per-pixel */
"32 32 86 1 ",
"  c #404C62",
". c #414D63",
"X c #424D63",
"o c #424E63",
"O c #424E64",
"+ c #434F65",
"@ c #445167",
"# c #455167",
"$ c #455268",
"% c #4A576E",
"& c #4A576F",
"* c #4B576F",
"= c #4B5871",
"- c #4C5871",
"; c #4C5971",
": c #4D5972",
"> c #4D5A72",
", c #4D5A73",
"< c #4E5A73",
"1 c #4E5B73",
"2 c #4F5C74",
"3 c #505C74",
"4 c #515D75",
"5 c #515E75",
"6 c #525E75",
"7 c #535F76",
"8 c #536076",
"9 c #546076",
"0 c #556177",
"q c #556178",
"w c #566278",
"e c #566279",
"r c #576379",
"t c #586379",
"y c #58647A",
"u c #59657A",
"i c #5B6A85",
"p c #5C6A85",
"a c #5D6C88",
"s c #5E6C88",
"d c #62718F",
"f c #62728F",
"g c #63728F",
"h c #637290",
"j c #647390",
"k c #647391",
"l c #647491",
"z c #657491",
"x c #657492",
"c c #6E7C97",
"v c #6E7E9E",
"b c #6E7F9F",
"n c #6F7F9F",
"m c #6F7FA0",
"M c #76839C",
"N c #77839C",
"B c #79869F",
"V c #7080A0",
"C c #7080A1",
"Z c #7181A1",
"A c #7181A2",
"S c #7C88A0",
"D c #7D89A1",
"F c #7D8BA8",
"G c #7E8CA9",
"H c #7E8DAA",
"J c #848FA6",
"K c #828FA9",
"L c #8794AF",
"P c #8893A9",
"I c #8994A9",
"U c #8895AF",
"Y c #8895B0",
"T c #8996B0",
"R c #8A97B1",
"E c #909CB5",
"W c #919DB6",
"Q c #929EB6",
"! c #929EB7",
"~ c #99A5BC",
"^ c #9BA6BD",
"/ c #9BA7BE",
"( c #A0ABC0",
") c #A1ACC1",
"_ c #A2ADC2",
"` c None",
/* pixels */
"````````````````````````````````",
"````````````````````````````````",
"````````````````````````````````",
"````````````````````````````````",
"````````````````````````````````",
"````````````````````````````````",
"````````````````````````````````",
"````````````````````````````````",
"UUUUUU``````````````````````````",
"UUUUUU``````````````````````````",
"UUUUUT``````````````````````````",
"UUUUUK``````````````````````````",
"LLLUTBe6MRTUUUUUUU``````````````",
"EEEW!S96MRTUUUUUUU``````````````",
"((()_Pt5MRTUUUUUUT``````````````",
"~~~^/Jw6MTTUUUUUUK``````````````",
"FFFGHc26MTYLLLLUTBe6MRTUUUUTRN8.",
"vvvbnd-0DQWEEEEW!S96MRTUUUUTRN8.",
"vvvnmf=yI_)(((()_Pt5MRTUUUUTRN8.",
"nnnVVh;rJ/^~~~~^/Jw6MTTUUUUTTM7.",
"nnnVVj;3cHGFFFFGHc26MTYLLLLYTM7.",
"VVVCZk>;gnbvvvvbnd-0DQWEEEEWQDq.",
"VVVZAz>;hmnvvvvnmf=yI_)(((()_Iu ",
"jjjkzi%>kZCVVVVCZj;rJ/^~~~~^/Jr ",
",,,<1&@,xAZVVVVZAk:3cHGFFFFGHc4.",
"oooXX.o>slkjjjjkzi%:hnbvvvvbnh>o",
"````````>,,,,,,<1&#,jmnvvvvnmh,o",
"````````oooooooXX.o1zZCVVVVCZk<X",
"``````````````````X<zAZVVVVZAz1X",
"``````````````````X:alkjjjjkzp*O",
"````````````````````:,,,,,,<1*$+",
"````````````````````oooooooXXO++"
};
