/* XPM */
static char *result[] = {
/* columns rows colors chars-per-pixel */
"32 32 85 1 ",
"  c #424D63",
". c #424E63",
"X c #424E64",
"o c #434F65",
"O c #455168",
"+ c #4A576E",
"@ c #4B576F",
"# c #4C5971",
"$ c #4C5972",
"% c #4D5A72",
"& c #4D5A73",
"* c #4E5A73",
"= c #4E5B73",
"- c #505C74",
"; c #525E75",
": c #536076",
"> c #546076",
", c #556279",
"< c #566278",
"1 c #566279",
"2 c #576379",
"3 c #59647A",
"4 c #5B6A85",
"5 c #637290",
"6 c #647390",
"7 c #647391",
"8 c #647491",
"9 c #657491",
"0 c #6E7C97",
"q c #6E7E9E",
"w c #6E7F9F",
"e c #6F7F9F",
"r c #6F7FA0",
"t c #76839C",
"y c #79869F",
"u c #7080A0",
"i c #7080A1",
"p c #7181A1",
"a c #7181A2",
"s c #7A87A0",
"d c #7C88A0",
"f c #7C8BA8",
"g c #7D8BA8",
"h c #7E8CA9",
"j c #7E8DAA",
"k c #838FA5",
"l c #828FA9",
"z c #8390AA",
"x c #8792A8",
"c c #8794AE",
"v c #8794AF",
"b c #8893A8",
"n c #8895AF",
"m c #8D98AC",
"M c #8895B0",
"N c #8896B0",
"B c #8996B0",
"V c #8A97B1",
"C c #8F9BB4",
"Z c #8F9CB4",
"A c #909CB4",
"S c #909CB5",
"D c #919DB5",
"F c #919DB6",
"G c #919EB6",
"H c #929EB7",
"J c #96A1B9",
"K c #99A4BB",
"L c #99A5BB",
"P c #99A5BC",
"I c #9BA6BD",
"U c #9BA7BE",
"Y c #9FA9BF",
"T c #9FAABF",
"R c #A0AAC0",
"E c #A0ABC0",
"W c #A1ACC1",
"Q c #A2ACC1",
"! c #A2ADC2",
"~ c #A6B0C4",
"^ c #A7B1C5",
"/ c #A8B1C5",
"( c #A8B2C6",
") c #A9B3C7",
"_ c None",
/* pixels */
"^TAvnnnn________________________",
"^TAvnnnn________________________",
"^TAvnnnn________________________",
"^TAvnnnn________________________",
"^TAvnnnn________________________",
"^TAvnnnn________________________",
"^TAvnnnn________________________",
"^TAvnnnn________________________",
"^TAvnnnn________________________",
"(EDMBBBB________________________",
")WGBBVVV________________________",
"mxdttttt________________________",
"32>;;;;;________________________",
"32>;;;;1________________________",
"mxdttttszB______________________",
")WGBBVVBnn______________________",
"(EDMBBBBnn__nnnnnnnnnn__________",
"^TAvnnnnnn__nnnnnnnnnn__________",
"^TAvnnnnnB__BnnnnnnnnB__Bnnnnnnn",
"^TZccnnnnl__lnnnnnnnnl__lnnnnnnn",
"^YCccvvnBy,,yBnvvvvnBy,1yNnvvvvv",
"/WJAASSFHd::dHFSSSSFHd::dHFSSSSS",
"/~QREEEW!b22b!WEEEEW!b22b!WEEEEE",
"KKLPPPPIUk<<kUIPPPPIUk<<kUIPPPPP",
"ffggggghj0--0jhgggghj0--0jhggggg",
"qqqqqqqwe5##5ewqqqqwe5##5ewqqqqq",
"qqqqqqqer5$$5reqqqqer5$$5reqqqqq",
"uuuuuuuip7%%7piuuuuip7%%7piuuuuu",
"uuuuuuupa8%%8apuuuupa8%%8apuuuuu",
"6666666794++4976666794++49766666",
"&&&&&&&*=@OO@=*&&&&*=@OO@=*&&&&&",
".......  XooX  ....  XooX  ....."
};
