/* XPM */
static char *result[] = {
/* columns rows colors chars-per-pixel */
"32 32 105 2 ",
"   c #333C4E",
".  c #333C4D",
"X  c #374154",
"o  c #404B60",
"O  c #434D63",
"+  c #434E63",
"@  c #434F64",
"#  c #606F8B",
"$  c #616F8B",
"%  c #616F8C",
"&  c #596681",
"*  c #49566D",
"=  c #7182A2",
"-  c #7080A1",
";  c #6D7D9E",
":  c #6C7C9C",
">  c #6E7E9E",
",  c #7181A2",
"<  c #667593",
"1  c #4D5A73",
"2  c #7282A3",
"3  c #657595",
"4  c #607090",
"5  c #617090",
"6  c #60708F",
"7  c #6E7F9F",
"8  c #4E5B73",
"9  c #5C6A87",
"0  c #54617D",
"q  c #4F5D78",
"w  c #4F5D79",
"e  c #505D79",
"r  c #515E7A",
"t  c #53617E",
"y  c #53617D",
"u  c #505E7A",
"i  c #54627E",
"p  c #5D6B87",
"a  c #586580",
"s  c #465269",
"d  c #424C61",
"f  c #3E485D",
"g  c #3C465B",
"h  c #3F4A60",
"j  c #3D485D",
"k  c #3F495E",
"l  c #394356",
"z  c #414B60",
"x  c #424D62",
"c  c #424E64",
"v  c #424C62",
"b  c #606E8B",
"n  c #61708C",
"m  c #7181A1",
"M  c #6F80A0",
"N  c #6D7D9D",
"B  c #6B7B9B",
"V  c #7081A1",
"C  c #657492",
"Z  c #4D5A72",
"A  c #647493",
"S  c #5F6F8E",
"D  c #657494",
"F  c #606F8E",
"G  c #606F8F",
"H  c #677696",
"J  c #5E6D8D",
"K  c #596888",
"L  c #5F6E8D",
"P  c #677797",
"I  c #61708D",
"U  c #4C5971",
"Y  c #5A6988",
"T  c #5C6B8A",
"R  c #5A6989",
"E  c #5C6C8B",
"W  c #596784",
"Q  c #4A566F",
"!  c #5A6A89",
"~  c #5B6A89",
"^  c #505E79",
"/  c #4B5872",
"(  c #515F7B",
")  c #3C475B",
"_  c #3C475C",
"`  c #3D475C",
"'  c #3B4559",
"]  c #384255",
"[  c #46526A",
"{  c #434D62",
"}  c #667696",
"|  c #596887",
" . c #5E6E8D",
".. c #616F8D",
"X. c #5C6B8B",
"o. c #5F6E8E",
"O. c #586784",
"+. c #49566E",
"@. c #54627F",
"#. c #54637F",
"$. c #47536B",
"%. c #48556D",
"&. c #445067",
"*. c #434F65",
"=. c white",
/* pixels */
"                      . . X o o X . .                           ",
"O O + + + + + + + + + + O + @ @ + O + + + + + + + + + + + + O O ",
"# # $ % % % % % % % % % % & * * & % % % % % % % % % % % % $ # # ",
"= - ; : : : : : : : : > , < 1 1 < , > : : : : : : : : : : ; - = ",
"2 ; 3 4 5 5 5 5 5 6 6 3 7 < 8 8 < 7 3 4 5 5 5 5 5 5 5 5 4 3 ; 2 ",
"$ 9 0 q w e e r t y u i p a s s a p i q w e e r t t r q q 0 9 $ ",
"d o f g g g g h s s h j o k l l k z f g g g g h s s h g g f o d ",
"d d x x x x x x c c x x v x O O x x x x x x x x c c x x x x x v ",
"b # $ % % n n & * * & % % % % % % $ % % % n n & * * & n n % $ $ ",
"m M N B B ; V C Z Z C V ; B B B B B B B B ; V C Z Z C V ; B B B ",
"m : A S S D ; C Z Z C ; D F F G G G G F F D ; C Z Z C ; D F F G ",
"B H J K K L P I U U I P L Y Y Y Y Y Y Y Y L P I U U I P L Y Y Y ",
"G L T R R E S W Q Q W S E R R R ! ~ ~ ! ! E S W Q Q W S E ! ! ~ ",
"e e ^ ^ ^ u u / c c / ^ ^ ( i i ( ^ ^ ^ ^ u u / c c / u u ^ ^ ^ ",
") ) _ ` ` ` _ ' ] ] ' ) ) o [ [ o ) ) ` ` ` _ ' ] ] ' _ ` ` ` ` ",
"x x x x x x x { O O { x x x c c x x x x x x x { O O { x x x x x ",
"# $ % % % % % % % n % n n & * * & n n % % % % % % % % % % % $ # ",
"m M N B B B B B B B B ; V C Z Z C V ; B B B B B B B B B B N M m ",
"m : A F F G G G G F F D ; C Z Z C ; D F F G G G G G G F F A : m ",
"B H J Y Y Y Y Y Y Y Y L P I U U I P L Y Y Y Y Y Y Y Y Y Y J H B ",
"G L T ! ! ~ ~ ! R R R E S W Q Q W S E ! ! ~ ~ ! R R ! ! ! T L G ",
"e e ^ ^ ^ ^ ^ ( i i ( ^ ^ / c c / u u ^ ^ ^ ^ ( i i ( ^ ^ ^ e e ",
") ) _ ` ` ) ) o [ [ o ) ) ' ] ] ' _ ` ` ` ) ) o [ [ o ) ) _ ) ) ",
"x x x x x x x x c c x x x { O O { x x x x x x x c c x x x x x x ",
"# $ % % % n n & * * & n n % n % % % % % % n n & * * & n n % % % ",
"m M N B B ; V C Z Z C V ; B B B B B B B B ; V C Z Z C V ; B B B ",
"m : A S S D ; C Z Z C ; D F F G G G G F F D ; C Z Z C ; D F F G ",
"B } J | |  .P ..U U ..P  .K Y Y Y Y Y Y K  .P ..U U ..P  .K Y Y ",
"G  .T Y Y X.o.O.+.+.O.o.X.Y Y Y Y Y Y Y Y X.o.O.+.+.O.o.X.Y Y Y ",
"@.@.@.@.@.#.@.q $.$.q @.#.@.@.@.@.@.@.@.@.#.@.q $.$.q @.#.@.@.@.",
"%.%.%.%.%.%.%.$.&.&.$.%.%.%.%.%.%.%.%.%.%.%.%.$.&.&.$.%.%.%.%.%.",
"c c c c c c c c *.*.c c c c c c c c c c c c c c *.*.c c c c c c "
};
