/* XPM */
static char *result[] = {
/* columns rows colors chars-per-pixel */
"64 64 165 2 ",
"   c black",
".  c #150B0C",
"X  c #1A0E0F",
"o  c #1C1111",
"O  c #17181A",
"+  c #141617",
"@  c #2A1615",
"#  c #2C1817",
"$  c #241C1D",
"%  c #2D1918",
"&  c #311B1A",
"*  c #1C1E20",
"=  c #2C2C2E",
"-  c #27282A",
";  c #372929",
":  c #2F2F31",
">  c #2F3031",
",  c #343436",
"<  c #3B3B3C",
"1  c #45231F",
"2  c #442421",
"3  c #482623",
"4  c #442826",
"5  c #4D2926",
"6  c #4A2E2C",
"7  c #522B26",
"8  c #532D29",
"9  c #592E29",
"0  c #582D27",
"q  c #4C302E",
"w  c #5D322D",
"e  c #433B3C",
"r  c #4D373C",
"t  c #513638",
"y  c #593737",
"u  c #60342F",
"i  c #623530",
"p  c #693732",
"a  c #663934",
"s  c #6C3A35",
"d  c #703C37",
"f  c #723D38",
"g  c #783E37",
"h  c #71413D",
"j  c #79423C",
"k  c #3F3F41",
"l  c #503B41",
"z  c #5D3E41",
"x  c #623F41",
"c  c #3F4142",
"v  c #434545",
"b  c #4D4D4E",
"n  c #5C4246",
"m  c #5F4348",
"M  c #4E4E5F",
"N  c #5B4953",
"B  c #555657",
"V  c #5C5C5C",
"C  c #644243",
"Z  c #694547",
"A  c #6C4945",
"S  c #6D4A4E",
"D  c #6A474A",
"F  c #754E4A",
"G  c #72514D",
"H  c #79514C",
"J  c #6E4C50",
"K  c #734F52",
"L  c #6F5457",
"P  c #765253",
"I  c #7C5653",
"U  c #7E5855",
"Y  c #735A5F",
"T  c #424D63",
"R  c #4F4F60",
"E  c #455168",
"W  c #4A566D",
"Q  c #525263",
"!  c #5F5C6A",
"~  c #515468",
"^  c #4C5972",
"/  c #525E75",
"(  c #665D6E",
")  c #546076",
"_  c #566279",
"`  c #5A667B",
"'  c #5D6075",
"]  c #64646C",
"[  c #6B6B6C",
"{  c #636379",
"}  c #616070",
"|  c #737373",
" . c #787979",
".. c #82463F",
"X. c #824740",
"o. c #8C4C45",
"O. c #904F47",
"+. c #9C554D",
"@. c #885A5C",
"#. c #915F61",
"$. c #847775",
"%. c #8C7D7B",
"&. c #937F7C",
"*. c #5B6985",
"=. c #656981",
"-. c #6C6D85",
";. c #696F89",
":. c #63718E",
">. c #6F728A",
",. c #717087",
"<. c #7E7980",
"1. c #75738A",
"2. c #7A768B",
"3. c #7A798D",
"4. c #637390",
"5. c #6E7C97",
"6. c #6E7E9E",
"7. c #737C94",
"8. c #6F7FA0",
"9. c #76839C",
"0. c #7B869D",
"q. c #6F80A1",
"w. c #7081A1",
"e. c #7D89A1",
"r. c #7E8CA9",
"t. c #848485",
"y. c #87858A",
"u. c #8C8C8D",
"i. c #998D8B",
"p. c #878290",
"a. c #8B8D97",
"s. c #908D9D",
"d. c #8F9090",
"f. c #939493",
"g. c #9E9492",
"h. c #929699",
"j. c #9B9B9B",
"k. c #A09594",
"l. c #848FA6",
"z. c #828FA9",
"x. c #8590A7",
"c. c #8794AF",
"v. c #8895AF",
"b. c #8F99AD",
"n. c #8C91A0",
"m. c #919BAF",
"M. c #8996B0",
"N. c #919DB5",
"B. c #9DA0A0",
"V. c #9AA6BD",
"C. c #9CA8BF",
"Z. c #98A1B2",
"A. c #A2A2A2",
"S. c #AEAEAE",
"D. c #B0B0AF",
"F. c #B2B2B2",
"G. c #B9BABA",
"H. c #9CA9C0",
"J. c #A1ACC1",
"K. c #C5C5C5",
"L. c #C9CACB",
"P. c #D6D6D6",
"I. c #E2E2E2",
"U. c #F4F4F4",
"Y. c None",
/* pixels */
"Y.Y.Y.Y.Y.Y.Y.Y.Y.Y.Y.Y.Y.Y.Y.Y.Y.Y.Y.Y.Y.Y.Y.Y.Y.Y.Y.Y.Y.Y.Y.Y.Y.Y.Y.Y.Y.Y.Y.Y.Y.Y.Y.Y.Y.Y.Y.Y.Y.Y.Y.Y.Y.Y.Y.Y.Y.Y.Y.Y.Y.Y.Y.Y.",
"Y.Y.Y.Y.Y.Y.Y.Y.Y.Y.Y.Y.Y.Y.Y.Y.Y.Y.Y.Y.Y.Y.Y.Y.Y.Y.Y.Y.Y.Y.Y.Y.Y.Y.Y.Y.Y.Y.Y.Y.Y.Y.Y.Y.Y.Y.Y.Y.Y.Y.Y.Y.Y.Y.Y.Y.Y.Y.Y.Y.Y.Y.Y.Y.",
"Y.Y.Y.Y.Y.Y.Y.Y.Y.Y.Y.Y.Y.Y.Y.Y.Y.Y.Y.Y.Y.Y.Y.Y.Y.Y.Y.Y.Y.Y.Y.Y.Y.Y.Y.Y.Y.Y.Y.Y.Y.Y.Y.Y.Y.Y.Y.Y.Y.Y.Y.Y.Y.Y.Y.Y.Y.Y.Y.Y.Y.Y.Y.Y.",
"Y.Y.Y.Y.Y.Y.Y.Y.Y.Y.Y.Y.Y.Y.Y.Y.Y.Y.Y.Y.Y.Y.Y.Y.Y.Y.Y.Y.Y.Y.Y.Y.Y.Y.Y.Y.Y.Y.Y.Y.Y.Y.Y.Y.Y.Y.Y.Y.Y.Y.Y.Y.Y.Y.Y.Y.Y.Y.Y.Y.Y.Y.Y.Y.",
"Y.Y.Y.Y.Y.Y.Y.Y.Y.Y.Y.Y.Y.Y.Y.Y.Y.Y.Y.Y.Y.Y.Y.Y.Y.Y.Y.Y.Y.Y.Y.Y.Y.Y.Y.Y.Y.Y.Y.Y.Y.Y.Y.Y.Y.Y.Y.Y.Y.Y.Y.Y.Y.Y.Y.Y.Y.Y.Y.Y.Y.Y.Y.Y.",
"Y.Y.Y.Y.Y.Y.Y.Y.Y.Y.Y.Y.Y.Y.Y.Y.Y.Y.Y.Y.Y.Y.Y.Y.Y.Y.Y.Y.Y.Y.Y.Y.Y.Y.Y.Y.Y.Y.Y.Y.Y.Y.Y.Y.Y.Y.Y.Y.Y.Y.Y.Y.Y.Y.Y.Y.Y.Y.Y.Y.Y.Y.Y.Y.",
"Y.Y.Y.Y.Y.Y.Y.Y.Y.Y.Y.Y.Y.Y.Y.Y.Y.Y.Y.Y.Y.Y.Y.Y.Y.Y.Y.Y.Y.Y.Y.Y.Y.Y.Y.Y.Y.Y.Y.Y.Y.Y.Y.Y.Y.Y.Y.Y.Y.Y.Y.Y.Y.Y.Y.Y.Y.Y.Y.Y.Y.Y.Y.Y.",
"Y.Y.Y.Y.Y.Y.Y.Y.Y.Y.Y.Y.Y.Y.Y.Y.Y.Y.Y.Y.Y.Y.Y.Y.Y.Y.Y.Y.Y.Y.Y.Y.Y.Y.Y.Y.Y.Y.Y.Y.Y.Y.Y.Y.Y.Y.Y.Y.Y.Y.Y.Y.Y.Y.Y.Y.Y.Y.Y.Y.Y.Y.Y.Y.",
"Y.Y.Y.Y.Y.Y.Y.Y.Y.Y.Y.Y.Y.Y.Y.Y.Y.Y.Y.Y.Y.Y.Y.Y.Y.Y.M.c.v.v.M.v.v.M.c.v.c.v.Y.Y.Y.Y.Y.Y.Y.Y.Y.Y.Y.Y.Y.Y.Y.Y.Y.Y.Y.Y.Y.Y.Y.Y.Y.Y.",
"Y.Y.Y.Y.Y.Y.Y.Y.Y.Y.Y.Y.Y.Y.Y.Y.Y.Y.Y.Y.Y.Y.Y.Y.Y.Y.c.c.M.v.c.v.v.v.v.v.M.c.Y.Y.Y.Y.Y.Y.Y.Y.Y.Y.Y.Y.Y.Y.Y.Y.Y.Y.Y.Y.Y.Y.Y.Y.Y.Y.",
"Y.Y.Y.Y.Y.Y.Y.Y.Y.Y.Y.Y.Y.Y.Y.Y.Y.Y.Y.Y.Y.Y.Y.Y.Y.Y.c.c.c.v.v.v.c.M.M.c.c.M.Y.Y.Y.Y.Y.Y.Y.Y.Y.Y.Y.Y.Y.Y.Y.Y.Y.Y.Y.Y.Y.Y.Y.Y.Y.Y.",
"Y.Y.Y.Y.Y.Y.Y.Y.Y.Y.Y.Y.Y.Y.Y.Y.Y.Y.Y.Y.Y.Y.Y.Y.Y.Y.x.M.v.v.c.c.v.v.v.v.c.x.Y.Y.Y.Y.Y.Y.Y.Y.Y.Y.Y.Y.Y.Y.Y.Y.Y.Y.Y.Y.Y.Y.Y.Y.Y.Y.",
"Y.Y.Y.Y.Y.Y.Y.Y.Y.Y.Y.Y.Y.Y.v.v.c.v.v.v.v.M.M.9.) ) e.c.M.c.c.c.c.c.c.c.c.e.) ) 9.M.M.c.v.v.v.M.v.M.Y.Y.Y.Y.Y.Y.Y.Y.Y.Y.Y.Y.Y.Y.",
"Y.Y.Y.Y.Y.Y.Y.Y.Y.Y.Y.Y.Y.Y.M.v.M.c.M.c.v.M.M.9.) ) e.N.N.Z.N.N.N.N.N.Z.N.e.) / 9.M.M.M.v.v.v.v.v.v.Y.Y.Y.Y.Y.Y.Y.Y.Y.Y.Y.Y.Y.Y.",
"Y.Y.Y.Y.Y.Y.Y.Y.Y.Y.Y.Y.Y.Y.M.c.c.M.c.M.v.M.M.9.) _ c.J.C.C.C.C.H.C.J.J.H.c._ / 9.M.M.v.M.c.v.c.c.c.Y.Y.Y.Y.Y.Y.Y.Y.Y.Y.Y.Y.Y.Y.",
"Y.Y.Y.Y.Y.Y.Y.Y.Y.Y.Y.Y.Y.Y.z.v.M.c.M.c.M.M.c.9./ _ x.V.V.V.V.V.V.V.V.V.H.x._ ) 9.M.M.M.c.v.v.M.M.x.Y.Y.Y.Y.Y.Y.Y.Y.Y.Y.Y.Y.Y.Y.",
"T ) 9.M.M.M.c.v.v.M.M.9.) _ e.c.c.c.v.c.c.M.M.9.) ^ 5.r.r.r.r.r.r.r.r.r.r.5.^ / 9.M.M.v.c.c.v.v.M.e.) / 9.M.M.M.c.M.v.M.M.9.) T ",
"T ) 9.M.M.M.M.v.v.M.M.9./ ) e.Z.N.N.N.N.N.N.N.e.) ^ 4.q.q.6.6.6.5.6.6.q.8.4.^ _ l.N.N.N.N.N.N.N.Z.e./ / 9.M.M.M.M.c.v.M.M.0.) T ",
"T ) 9.M.M.c.c.v.v.M.M.9./ _ v.C.J.H.J.H.C.C.J.v._ ^ 4.q.6.6.5.6.6.6.6.6.8.:.^ ` x.J.C.C.J.C.C.C.H.c._ / 9.M.M.c.c.M.c.v.M.9.) T ",
"T / 9.c.M.M.v.v.M.M.M.9./ _ l.C.V.V.V.V.C.V.C.x._ ^ 4.w.q.6.q.q.6.6.6.q.q.4.^ _ x.C.V.V.V.V.V.V.V.x._ / 9.M.M.M.M.c.c.v.M.9./ T ",
"T ) 9.M.c.c.c.c.v.M.v.9./ ^ 5.r.r.r.r.r.l.r.r.5./ ^ 4.q.q.8.8.q.6.8.8.w.w.4.^ / 5.r.r.r.r.r.r.r.r.q.^ ) 9.M.c.c.c.c.M.M.M.9.^ T ",
"T _ e.Z.N.N.N.N.N.N.N.e._ ^ 4.8.6.6.6.6.6.6.q.:.^ ^ 4.w.q.q.q.q.8.8.q.w.w.4.^ ^ :.9.8.6.6.6.6.6.q.:.^ _ e.Z.N.N.N.N.N.Z.Z.r.) T ",
"T _ x.J.J.C.H.J.C.J.J.v._ ^ 4.8.6.5.6.6.6.w.6.4.^ ^ 4.q.w.q.q.q.w.w.w.q.w.4.^ ^ 4.8.6.6.6.6.6.q.q.:.W _ c.H.J.J.H.H.C.C.J.x.` T ",
"T _ x.V.C.V.V.V.V.V.C.l._ ^ 4.q.8.8.w.8.q.w.w.:.~ R ' =.-.-.-.-.-.=.-.-.=.' R ~ 4.q.q.8.w.q.q.w.9.4.^ ) z.V.V.V.V.V.V.C.C.r._ T ",
"T ^ 5.r.r.r.r.r.r.r.r.5./ ^ 4.q.q.q.q.q.8.q.q.;.N t r l n C m m m m m n l r t N ;.q.q.w.w.w.q.q.w.4./ / 5.r.r.r.r.r.r.r.r.5./ T ",
"T ^ 4.w.6.6.6.6.5.6.8.:.~ Q { -.-.-.=.-.-.-.;.( z 7 1 2 7 9 9 9 8 9 9 7 1 1 7 z ( -.;.=.=.-.-.-.-.{ M ~ :.8.6.6.5.q.6.q.6.:.^ T ",
"E ^ 4.q.8.6.6.6.8.8.8.-.N r z C m z l l z m m z y 8 2 2 7 8 9 w w w 9 5 2 2 7 w z C n n l l n n m n r N -.8.q.8.q.6.5.q.w.4.^ T ",
"T ^ 4.w.w.8.8.8.8.8.8.-.C 8 9 9 9 5 2 2 9 w w 9 w 9 5 5 w w w u w w w w 5 5 w w w w w 8 2 2 5 9 9 0 7 m -.q.q.q.q.q.q.w.w.4.^ T ",
"T ^ 4.w.w.w.w.9.q.q.w.-.n 9 9 9 9 8 2 3 w a p a p p w w i a a a a a a i w w i a a p p w 3 2 8 9 9 9 9 n -.q.q.q.8.8.9.w.w.4./ T ",
"T ^ *.4.:.4.:.:.4.4.4.{ C 9 u 9 w 9 5 8 p d d d s p u u a s d s d d f s w i a s s f f p 7 5 9 u w w w C { 4.4.4.4.4.4.4.4.*.W T ",
"T E W ^ ^ ^ ^ ^ ^ ^ ^ Q x p p p p w 9 w a s d s s a p w s f f d d f s s i i a d s s d a w 9 p a a p p C R ^ ^ ^ ^ ^ ^ ^ ^ W E T ",
"T W ) ` ` ` ` ` ` ` ` ' L F F G I F a w a s s d s a i w 8 8 8 8 7 8 8 5 2 5 p f d s s a i w a s d s s Z ( ` ` _ ` ` ` ` ` ) W T ",
"T / 0.N.b.b.b.b.b.m.v.s.%.$.$.&.i.&.h u p s s s a h i 5 & X X X X X X . . # w s s s s s w u s s s s s I p.N.b.b.b.b.b.m.m.0./ T ",
"T ` l.H.V.V.V.V.V.V.V.Z.h.d.f.m.S.f.G w p d s s h a 7 1 $ * - > : , k v v e q 9 p s h p u u s s s s p I s.H.H.V.C.V.V.C.C.l.` T ",
"T / 5.z.r.r.r.r.r.r.r.l.a.f.j.S.F.f.G w p s s h s 0 % O , B  .y.y.f.G.L.L.g.e @ 0 h s a u u s s s s s P 3.r.r.r.r.r.r.r.z.5./ T ",
"T ^ 4.6.6.6.6.6.q.q.9.7. .t.i.g.k.%.A u p s d p w 1 $ : V  .t.y.y.j.G.P.P.G.] < q w s s u u a s d s a S -.8.8.6.6.6.6.6.6.:.^ T ",
"T ^ :.6.6.6.6.6.q.6.6.>.Y F I @.I F a w a h s 9 & $ < V u.t.b : > , c B  .j.G.j.e & 9 s u u p h s s s S -.8.8.6.6.6.6.8.8.4.^ T ",
"T ^ :.w.8.6.6.8.q.q.q.-.F p s p s p u u p s h 7 X O v | A.t.-         . v t.I.L.c . 7 s u w a s s s s S ,.w.w.6.6.6.8.9.8.4.^ T ",
"T ^ 4.w.9.8.q.6.q.q.q.-.S p s s s p u u s h h 8 o + v | A.y.=         + k t.I.L.c . 1 h i u s s s p d S -.w.8.8.6.8.6.w.8.4./ T ",
"T / 4.w.q.q.q.q.9.w.w.,.F p d s h p u u p p w 4 $ : B t.A.d.b = = = = < V u.P.K.[ e q 9 w u s h H H d F ,.w.w.w.8.8.8.w.w.4.^ T ",
"T / 4.w.w.w.w.w.q.w.w.>.J s s s p p w a h 9 & $ < V t.A.S.A.d.t.t.y.t.u.f.A.G.K.K.j.e @ 3 i a H &.&.H S >.q.q.9.8.w.8.w.w.4./ T ",
"T W *.4.4.4.4.4.4.4.4.{ S s d s h s i w a 7 X O v | k.D.S.S.D.D.F.F.F.D.D.S.S.K.U.K.l . 1 i p U k.k.U Z { 4.4.:.4.:.4.4.4.=.^ T ",
"T E W ^ ^ W / W ^ ^ ^ Q C s s s p s w i h 8 o O v | j.D.S.S.D.D.F.F.F.F.D.S.A.K.U.L.c . 1 w s U k.k.U x Q ^ ^ ^ ^ ^ ^ W ^ W E T ",
"T W / ` ` ` ` ` ` ` ` ! Z s d s s p u i p 8 o O v | j.D.S.S.S.A.d.t.t.d.A.S.S.K.U.K.c . 1 u p U g.k.U C ! ` _ ` ` ` ` ` ` / W T ",
"T / 0.b.m.b.b.b.b.b.N.p.H s p h s a i w s 8 X O v | j.D.D.D.D.u.b = - b d.D.S.K.U.K.v . 1 w p U k.g.H F p.M.N.m.b.m.b.m.N.0.' T ",
"T ` l.H.C.C.V.V.V.C.V.s.I p s s s h w i s 8 o O c | j.D.D.D.D.t.=     = t.D.S.K.I.F.e . 1 u p U k.g.U P s.H.C.V.V.V.V.C.C.l._ T ",
"T / 5.r.z.r.z.r.r.r.z.3.G s s s h p i i h 8 o O v | j.S.D.D.D.t.=     = t.F.D.F.K.d.> . 1 i p U g.k.U F 2.r.r.r.r.r.r.r.r.5./ T ",
"T ^ :.6.6.6.6.6.6.8.q.-.S s s s s a w w s 8 o O v | j.D.S.D.D.t.=     = t.D.D.D.S.9.= . 1 w p U k.k.U D -.8.8.6.6.5.6.q.q.:.^ T ",
"T / :.6.6.6.6.6.6.8.8.-.S s s d h a w i s 8 o O v | j.S.S.D.D.t.:     = t.D.D.D.S.%.: X 2 u p @.k.k.U D -.8.8.6.6.6.6.6.8.4./ T ",
"T ^ 4.8.w.6.6.6.6.8.w.,.S s s s s a u i s 8 o O v | j.S.S.D.D.u.b - - b u.D.D.D.D.0.= . 2 w p H &.&.H D -.q.q.8.8.6.6.w.w.:.^ T ",
"T ^ 4.8.w.6.6.6.6.w.w.,.S d s d s s w i s 8 o O v | j.S.S.S.D.A.d.t.t.d.A.D.D.D.D.t.: . 2 i s h H H f K ,.8.8.8.6.6.6.8.6.4.^ T ",
"T / 4.8.8.w.w.8.w.w.w.,.S s s s s s i i s 8 o O v | B.F.D.D.D.D.F.D.F.D.D.D.D.F.F.t.= . 2 i a s s p s J ,.w.w.8.8.w.w.w.w.:./ T ",
"T / 4.w.w.w.8.8.w.w.w.,.F s s s s s u i s 8 X O v | j.F.F.F.D.D.F.D.F.F.D.D.D.F.G.t.= . 2 i a d s p s F -.8.8.8.w.8.w.w.w.4./ T ",
"T W *.4.4.4.4.4.4.4.4.{ Z s s s s p w i s w % $ < B  .t.t.t.0.t.y.t.t.y.t.0.t.t.t.[ > # 5 i s s s d d D =.4.4.4.:.4.:.4.4.*.^ T ",
"T E W ^ ^ ^ ^ ^ ^ ^ ^ Q x p p d s p u u a a w 3 $ * - = : : : = = : > = : = = = : ; 6 9 w w a s d s d x Q ^ ^ ^ ^ ^ ^ ^ ^ ^ T T ",
"T W / { ` ` ` ` ` ` ` } P F F H H G a w a h h w & X X X X X X X X X X X . X X X X % 9 h i i a d s s s Z ( ` _ ` ` _ ` ` _ ' W T ",
"T / 0.N.b.b.b.b.M.m.m.s.t.$.$.%.i.%.A w p h d p w 5 3 3 7 7 7 7 8 8 7 5 1 1 5 8 5 y p a i i a d s s s P y.N.b.b.m.m.b.b.m.0./ T ",
"T ' l.H.C.V.C.V.V.C.C.m.h.d.f.B.S.g.G w p s s s h s i i s s h s s h h s p i s h d d s p w i a s s s s P s.H.H.V.V.C.C.H.C.l.` T ",
"T / 5.r.z.r.z.r.r.r.r.l.a.f.A.S.F.f.G w p s s s s s i w s s s h s s s s i i p s d s d a i u p s d s s K 2.r.r.r.r.r.r.r.z.5./ T ",
"T ^ :.6.6.6.6.6.6.6.8.5.<.%.i.g.g.%.h u p s s h s a i w s s s s s h s p w u s s s d d a u u p d s s p J ,.8.8.6.5.6.6.6.8.:.^ T ",
"T ^ 4.w.6.6.6.6.6.8.8.,.( F H U I F a w s s s h s p w u s h s s s s s p i w s s d s s a i w p d s s s J -.8.8.6.6.6.6.6.8.4.^ T ",
"T ^ :.w.w.6.6.6.8.w.8.,.H g g j j h u u h j j j j h i i h j j j j j j h i i h j j j j d i i d j j g g K ,.8.w.8.6.6.6.w.8.4./ T ",
"T ^ 4.w.w.6.6.6.6.8.8.2.@...o.O.O.j i p ..O.O.O.O.j a p j O.O.o.O.O.O...a a ..O.O.O.O.X.a a X.O.O.O.O.@.2.8.8.8.6.8.6.w.8.4.^ T ",
"T ^ 4.9.w.6.8.8.6.w.8.<.#.+.+.+.+.o.s s o.+.+.+.+.o.s s o.+.+.+.+.+.+.O.p p o.+.+.+.+.o.s a o.+.+.+.+.#.2.w.8.8.9.6.6.6.w.4.^ T "
};
