/* XPM */
static char *result[] = {
/* columns rows colors chars-per-pixel */
"32 32 137 2 ",
"   c #010203",
".  c #050608",
"X  c #0B0A0C",
"o  c #0C0405",
"O  c #10090A",
"+  c #140606",
"@  c #0C0E10",
"#  c #100F11",
"$  c #141316",
"%  c #1D1B1F",
"&  c #280D0E",
"*  c #230C0E",
"=  c #250E10",
"-  c #2B0F11",
";  c #271315",
":  c #2C1214",
">  c #231B1E",
",  c #301112",
"<  c #331D1F",
"1  c #1E1D21",
"2  c #231E21",
"3  c #222327",
"4  c #252629",
"5  c #272A2E",
"6  c #292A2E",
"7  c #3B2528",
"8  c #292D31",
"9  c #302F31",
"0  c #2E3032",
"q  c #333336",
"w  c #363438",
"e  c #3B3B3D",
"r  c #4D1718",
"t  c #411313",
"y  c #541818",
"u  c #6A1F1F",
"i  c #651F20",
"p  c #6B1F20",
"a  c #472629",
"s  c #40393A",
"d  c #6D2728",
"f  c #7A2425",
"g  c #782F33",
"h  c #7C3436",
"j  c #65493B",
"k  c #3D3D40",
"l  c #424243",
"z  c #42454A",
"x  c #4E4C52",
"c  c #524D53",
"v  c #6A4E54",
"b  c #6E545A",
"n  c #6B5055",
"m  c #7B575D",
"M  c #5F6A70",
"N  c #65636B",
"B  c #6E6E6F",
"V  c #6B6B71",
"C  c #706E76",
"Z  c #6F7179",
"A  c #727179",
"S  c #822727",
"D  c #882727",
"F  c #8C2929",
"G  c #942B2B",
"H  c #9C2D2D",
"J  c #923030",
"K  c #A22F2F",
"L  c #A53030",
"P  c #AD3232",
"I  c #B23434",
"U  c #B45B2D",
"Y  c #C56B3F",
"T  c #9F3D40",
"R  c #A03D40",
"E  c #9C4A4D",
"W  c #954E4F",
"Q  c #9F565A",
"!  c #A54143",
"~  c #A94546",
"^  c #AE4E41",
"/  c #BF6253",
"(  c #915E64",
")  c #8B686F",
"_  c #906D6E",
"`  c #99776F",
"'  c #8D6A71",
"]  c #936E74",
"[  c #9B7870",
"{  c #BC7475",
"}  c #C36455",
"|  c #C66566",
" . c #7C7780",
".. c #727C84",
"X. c #787981",
"o. c #927C84",
"O. c #76848C",
"+. c #79858D",
"@. c #818089",
"#. c #818F97",
"$. c #8B8C96",
"%. c #8B8F99",
"&. c #8B939C",
"*. c #8F9293",
"=. c #92959A",
"-. c #949696",
";. c #AA9197",
":. c #9397A1",
">. c #9799A2",
",. c #9C9DA5",
"<. c #95A2AC",
"1. c #98A6B1",
"2. c #9AA9B3",
"3. c #9BAEB8",
"4. c #9EB1BB",
"5. c #BAA3A4",
"6. c #A2B4BE",
"7. c #A8B4BC",
"8. c #B2B6B8",
"9. c #C6A7A3",
"0. c #AEBEC6",
"q. c #B6C4CC",
"w. c #B9C7CF",
"e. c #BBC9D1",
"r. c #C4C3C4",
"t. c #C5C8C8",
"y. c #CFD3D8",
"u. c #D3D3D3",
"i. c #EED7D7",
"p. c #F5D6D6",
"a. c #D5DDE1",
"s. c #E7DFE0",
"d. c #EAEFF1",
"f. c #EDF1F3",
"g. c #F3F5F5",
"h. c #F2F7F9",
"j. c None",
/* pixels */
"j.j.j.j.j.j.j.j.j.j.j.j.j.j.j.j.j.j.j.j.j.j.j.j.j.j.j.j.j.j.j.j.",
"j.j.j.j.j.j.j.j.j.j.j.j.j.j.j.j.j.j.j.j.j.j.j.j.j.j.j.j.j.j.j.j.",
"j.j.j.j.j.j.j.j.j.j.. .     . . j.j.j.j.j.j.j.j.j.j.j.j.j.j.j.j.",
"j.j.j.j.j.j.j.j.j.j.. X ; , : & j.j.j.j.j.j.j.j.j.j.j.j.j.j.j.j.",
"j.j.j.j.j.j.j.j.j.j.. = i F D p -   j.j.j.j.j.j.j.j.j.j.j.j.j.j.",
"j.j.j.j.j.j.j.j.j.j.  : p J R h ;   j.j.j.j.j.j.j.j.j.j.j.j.j.j.",
"j.j.j.j.j.j.j.j.j.j.j.j.= a m b 2               j.j.j.j.j.j.j.j.",
"j.j.j.j.j.j.j.j.j.j.j.j.1 k V Z z 8 5 8 8 8 8 5 j.j.j.j.j.j.j.j.",
"j.j.j.j.j.j.j.j.j.j.  % c C A o.O.O.O.O.O.O.O.N 5   j.j.j.j.j.j.",
"j.j.j.j.j.j.j.j.j.j.1 e A $.$.=.<.4.4.4.4.4.6.O.8   j.j.j.j.j.j.",
"j.j.j.j.j.j.j.j.  2 c A &.<.<.<.2.4.3.3.4.4.6.O.8   j.j.j.j.j.j.",
"j.j.j.j.j.j.j.j.  3 B :.2.6.0.q.q.q.q.q.q.w.e.&.q   j.j.j.j.j.j.",
"j.j.j.j.j.j.j.j.  5 ..2.2.0.a.d.f.f.d.f.f.h.h.8.e   j.j.j.j.j.j.",
"j.j.j.j.j.j.j.j.  8 O.6.3.q.d.g.u.r.r.r.r.t.t.*.q   j.j.j.j.j.j.",
"j.j.j.j.j.j.j.j.  8 O.3.3.q.d.u.B e w k l l l 6 $   j.j.j.j.j.j.",
"j.j.j.j.j.j.j.j.  5 ..2.2.w.f.u.B e e 0 @ X q q $ . j.j.j.j.j.j.",
"j.j.j.j.j.j.j.j.  4 V :.1.q.f.g.u.r.t.*.6 6 -.-.e   j.j.j.j.j.j.",
"j.j.j.j.j.j.j.j.  1 x A &.7.y.s.i.p.p.9.j j 9.5.e   j.j.j.j.j.j.",
"j.j.j.j.j.j.j.j.j.j.1 k Z &.,.;.{ | | / U U } W <   j.j.j.j.j.j.",
"j.j.j.j.j.j.j.j.j.j.o > v ] ' ( W T T U Y } ^ g :   j.j.j.j.j.j.",
"j.j.j.j.j.j.j.j.I f & ; h ! ! E ( ) ) ' ` [ ] v 2 . j.j.j.j.j.j.",
"j.j.j.j.j.j.j.j.I S - ; h ~ ~ Q o.%.%.%.$.%.%.V 4   j.j.j.j.j.j.",
"j.j.j.j.P P P P P S - 2 b ] ] o.:.2.2.1.1.3.2...6   j.j.j.j.j.j.",
"j.j.j.j.P P P P I F r 7 c N N V ..+.+.O.O.+.<...6   j.j.j.j.j.j.",
"j.j.j.j.j.j.P P P L G d 7 3 3 4 8 8 8 8 8 z X.V 4   j.j.j.j.j.j.",
"j.j.j.j.j.j.G H H H L f &             o $ 6 c c 1   j.j.j.j.j.j.",
"j.j.j.j.j.j.j.y y y y t +       j.    # q e 6 % X j.j.j.j.j.j.j.",
"j.j.j.j.j.j.j.j.j.j.j.j.j.j.j.j.j.j.  $ w w $   j.j.j.j.j.j.j.j.",
"j.j.j.j.j.j.j.j.j.j.j.j.j.j.j.j.j.    X $ $ X j.j.j.j.j.j.j.j.j.",
"j.j.j.j.j.j.j.j.j.j.j.j.j.j.j.j.j.j..       j.j.j.j.j.j.j.j.j.j.",
"j.j.j.j.j.j.j.j.j.j.j.j.j.j.j.j.j.j.j.    j.j.j.j.j.j.j.j.j.j.j.",
"j.j.j.j.j.j.j.j.j.j.j.j.j.j.j.j.j.j.j.j.j.j.j.j.j.j.j.j.j.j.j.j."
};
