/* XPM */
static char *result[] = {
/* columns rows colors chars-per-pixel */
"32 32 140 2 ",
"   c #010203",
".  c #060608",
"X  c #0E0709",
"o  c #0C0B0D",
"O  c #0C0405",
"+  c #141416",
"@  c #1B1B1F",
"#  c #220C0E",
"$  c #2B0D0E",
"%  c #2B0F10",
"&  c #271214",
"*  c #2B1214",
"=  c #231B1E",
"-  c #311B1D",
";  c #1E1D21",
":  c #211F23",
">  c #252528",
",  c #262A2E",
"<  c #2A2B2E",
"1  c #252327",
"2  c #3A2326",
"3  c #292D31",
"4  c #302F31",
"5  c #323235",
"6  c #3B3B3D",
"7  c #3C3436",
"8  c #4D1718",
"9  c #4E1D1F",
"0  c #631C1C",
"q  c #6C1F20",
"w  c #6B2526",
"e  c #7A2425",
"r  c #782F32",
"t  c #7B3335",
"y  c #3D3C40",
"u  c #3D4147",
"i  c #434344",
"p  c #42444A",
"a  c #4E4C52",
"s  c #514D53",
"d  c #584F55",
"f  c #694E54",
"g  c #6B5156",
"h  c #6D545A",
"j  c #5D686F",
"k  c #6A656C",
"l  c #6E6E6F",
"z  c #6C6B72",
"x  c #736E77",
"c  c #6F7179",
"v  c #72727A",
"b  c #717375",
"n  c #852727",
"m  c #8E2929",
"M  c #902A2A",
"N  c #803638",
"B  c #8C393B",
"V  c #A43030",
"C  c #AD3232",
"Z  c #B43434",
"A  c #AA4B3F",
"S  c #BF653A",
"D  c #C2663B",
"F  c #A13F41",
"G  c #9E4B4E",
"H  c #91494B",
"J  c #9F565A",
"K  c #9F5B5F",
"L  c #A74345",
"P  c #A84345",
"I  c #AE4D40",
"U  c #AE5052",
"Y  c #A25559",
"T  c #BA5A5C",
"R  c #935F64",
"E  c #8E6A6F",
"W  c #936065",
"Q  c #98766D",
"!  c #96746C",
"~  c #8E6B72",
"^  c #926D73",
"/  c #8F737A",
"(  c #CD7060",
")  c #D17162",
"_  c #E58C5E",
"`  c #727B83",
"'  c #7E7D86",
"]  c #857C85",
"[  c #8F7B83",
"{  c #927C84",
"}  c #75838C",
"|  c #7D868E",
" . c #88868F",
".. c #8D8D8E",
"X. c #8A8D97",
"o. c #8A8F99",
"O. c #8B939C",
"+. c #939394",
"@. c #999098",
"#. c #91919A",
"$. c #B19A9B",
"%. c #8D97A0",
"&. c #9397A1",
"*. c #969AA4",
"=. c #9D99A1",
"-. c #B09BA1",
";. c #95A4AE",
":. c #98A6B1",
">. c #9AA9B4",
",. c #9BAEB8",
"<. c #9EB1BB",
"1. c #A8A8AF",
"2. c #A5B4BC",
"3. c #B3B7B9",
"4. c #D8BCBE",
"5. c #AEBDC6",
"6. c #B5BEC6",
"7. c #B5C4CB",
"8. c #BCCAD2",
"9. c #C3C3C3",
"0. c #C6C8C8",
"q. c #CACBCC",
"w. c #CFD2D6",
"e. c #CAD8DE",
"r. c #D4D4D4",
"t. c #D6D8DA",
"y. c #DADCDC",
"u. c #FBDFCF",
"i. c #F2D4CE",
"p. c #F6D7D2",
"a. c #FEE1D1",
"s. c #D5DDE1",
"d. c #E6E6E8",
"f. c #EAEFF1",
"g. c #EEF2F4",
"h. c #F5F4F4",
"j. c #F2F7FA",
"k. c #F5FAFB",
"l. c #FDFEFE",
"z. c None",
/* pixels */
"z.z.z.z.z.z.z.z.z.z.z.z.z.z.  . z.z.z.z.z.z.z.z.z.z.z.z.z.z.z.z.",
"z.z.z.z.z.z.z.z.z.z.z.z.z.z.% % z.z.z.z.z.z.z.z.z.z.z.z.z.z.z.z.",
"z.z.z.z.z.z.z.z.z.z.. .   * q w % . z.z.z.z.z.z.z.z.z.z.z.z.z.z.",
"z.z.z.z.z.z.z.z.z.z.. X # 9 B t *   z.z.z.z.z.z.z.z.z.z.z.z.z.z.",
"z.z.z.z.z.z.z.z.z.z.. # 0 B R h :               z.z.z.z.z.z.z.z.",
"z.z.z.z.z.z.z.z.z.z.  * t Y / z u , , , 3 , 3 , z.z.z.z.z.z.z.z.",
"z.z.z.z.z.z.z.z.z.z.  = g / ] ] } } ` } } } } j ,   z.z.z.z.z.z.",
"z.z.z.z.z.z.z.z.z.z.; y c #.=.1.6.8.8.8.7.8.8.%.5   z.z.z.z.z.z.",
"z.z.z.z.z.z.z.z.  1 s x O.2.w.d.f.g.g.h.g.h.k.3.6   z.z.z.z.z.z.",
"z.z.z.z.z.z.z.z.  > z O.:.7.f.h.r.9.9.9.0.0.0.+.5   z.z.z.z.z.z.",
"z.z.z.z.z.z.z.z.  < ` >.,.7.g.r.l 7 6 6 i i i 4 + . z.z.z.z.z.z.",
"z.z.z.z.z.z.z.z.  3 } <.,.7.f.r.l 6 6 < o o < 5 +   z.z.z.z.z.z.",
"z.z.z.z.z.z.z.z.  3 } <.,.7.f.h.w.9.9...> < +.+.5   z.z.z.z.z.z.",
"z.z.z.z.z.z.z.z.  < ` >.,.5.s.f.g.k.l.r.z b y.q.i   z.z.z.z.z.z.",
"z.z.z.z.z.z.z.z.  > z &.:.2.5.7.7.e.k.k.r.t.l.0.i   z.z.z.z.z.z.",
"z.z.z.z.z.z.z.z.  ; a v O.;.;.*.@.-.4.i.u.a.p.$.7   z.z.z.z.z.z.",
"z.z.z.z.z.z.z.z.z.z.; y c o.X.[ K U T ( _ _ ) H -   z.z.z.z.z.z.",
"z.z.z.z.z.z.z.z.z.z.O : g ^ ~ R G A F A D D A r *   z.z.z.z.z.z.",
"z.z.z.z.z.z.z.z.Z e # & t L L G R ~ E E ! Q ^ f =   z.z.z.z.z.z.",
"z.z.z.z.z.z.z.z.Z n % & t P P J [ X.X.X.X.X.O.c y ; z.z.z.z.z.z.",
"z.z.z.z.C C C C Z n % = h ^ ^ { &.:.>.>.:.:.>.%.v s :   z.z.z.z.",
"z.z.z.z.C C C V M w 2 y z ' z z ` } } | } } } |  .k >   z.z.z.z.",
"z.z.z.z.z.z.C m 8 2 s x ] z 6 > , 3 3 3 3 3 3 p v k >   z.z.z.z.",
"z.z.z.z.z.z.Z e # ; s k k a ;                 ; s s ;   z.z.z.z.",
"z.z.z.z.z.z.z.z.X o ; > > ; o z.            z.o : @ o . z.z.z.z.",
"z.z.z.z.z.z.z.z.. .         z.z.z.z.z.z.z.z.z.z.      . z.z.z.z.",
"z.z.z.z.z.z.z.z.z.        z.z.z.z.z.z.z.z.z.z.z.z.    z.z.z.z.z.",
"z.z.z.z.z.z.z.z.z.z.z.z.z.z.z.z.z.z.z.z.z.z.z.z.z.z.z.z.z.z.z.z.",
"z.z.z.z.z.z.z.z.z.z.z.z.z.z.z.z.z.z.z.z.z.z.z.z.z.z.z.z.z.z.z.z.",
"z.z.z.z.z.z.z.z.z.z.z.z.z.z.z.z.z.z.z.z.z.z.z.z.z.z.z.z.z.z.z.z.",
"z.z.z.z.z.z.z.z.z.z.z.z.z.z.z.z.z.z.z.z.z.z.z.z.z.z.z.z.z.z.z.z.",
"z.z.z.z.z.z.z.z.z.z.z.z.z.z.z.z.z.z.z.z.z.z.z.z.z.z.z.z.z.z.z.z."
};
