/* XPM */
static char *result[] = {
/* columns rows colors chars-per-pixel */
"32 32 134 2 ",
"   c #010203",
".  c #060608",
"X  c #0E0709",
"o  c #0B0B0C",
"O  c #0B0405",
"+  c #131316",
"@  c #1C1B1E",
"#  c #230C0E",
"$  c #2B0F10",
"%  c #271214",
"&  c #2B1315",
"*  c #241B1E",
"=  c #3E1212",
"-  c #311B1D",
";  c #1E1E21",
":  c #231E21",
">  c #262629",
",  c #252A2D",
"<  c #2A2B2E",
"1  c #292D31",
"2  c #302F31",
"3  c #333235",
"4  c #3B3B3D",
"5  c #3C3436",
"6  c #4E1D1F",
"7  c #531818",
"8  c #631C1C",
"9  c #6C1F20",
"0  c #772323",
"q  c #782F33",
"w  c #7C3335",
"e  c #3D3C40",
"r  c #3D4147",
"t  c #434344",
"y  c #404248",
"u  c #4D494F",
"i  c #4E4C53",
"p  c #514C52",
"a  c #565258",
"s  c #6A4F55",
"d  c #6B5156",
"f  c #6D545A",
"g  c #5D5960",
"h  c #5E696F",
"j  c #6E6E6F",
"k  c #6C6B72",
"l  c #6F7179",
"z  c #717179",
"x  c #757379",
"c  c #832727",
"v  c #9E2E2E",
"b  c #803638",
"n  c #8C393B",
"m  c #AD3232",
"M  c #B13333",
"N  c #AA4B3F",
"B  c #BF653A",
"V  c #C2663A",
"C  c #A13F42",
"Z  c #91494B",
"A  c #9E4C4F",
"S  c #9F5B5F",
"D  c #9B5155",
"F  c #A74244",
"G  c #AE4D40",
"H  c #A94446",
"J  c #AE5052",
"K  c #A25559",
"L  c #BA5A5C",
"P  c #925E63",
"I  c #8F6C6D",
"U  c #936066",
"Y  c #98766D",
"T  c #96746C",
"R  c #8D6B73",
"E  c #926D73",
"W  c #8E7279",
"Q  c #CD7060",
"!  c #D17162",
"~  c #E58C5E",
"^  c #727C84",
"/  c #7E7D86",
"(  c #867982",
")  c #8F7B83",
"_  c #75838B",
"`  c #79868E",
"'  c #85828B",
"]  c #8A848D",
"[  c #8D8D8E",
"{  c #888B95",
"}  c #8B8E99",
"|  c #8B939C",
" . c #939394",
".. c #91919A",
"X. c #999098",
"o. c #B19A9B",
"O. c #9397A1",
"+. c #949CA6",
"@. c #9D99A1",
"#. c #B09BA1",
"$. c #95A4AE",
"%. c #99A7B2",
"&. c #9BAAB4",
"*. c #9BAEB8",
"=. c #9EB1BB",
"-. c #A8A8AF",
";. c #A5B4BC",
":. c #B3B7B9",
">. c #D8BCBE",
",. c #AEBDC6",
"<. c #B5BEC6",
"1. c #B5C4CB",
"2. c #BCCAD2",
"3. c #C3C3C3",
"4. c #C6C8C8",
"5. c #CACBCC",
"6. c #CFD2D6",
"7. c #CAD8DE",
"8. c #D4D4D4",
"9. c #D6D8DA",
"0. c #DADCDC",
"q. c #FBDFCF",
"w. c #F2D4CE",
"e. c #F6D7D2",
"r. c #FEE1D1",
"t. c #D5DDE1",
"y. c #E6E6E8",
"u. c #EAEFF1",
"i. c #EEF2F4",
"p. c #F5F4F4",
"a. c #F2F7FA",
"s. c #F5FAFB",
"d. c #FDFEFE",
"f. c None",
/* pixels */
"f.f.f.f.f.f.f.f.f.f.f.f.f.f.f.f.f.f.f.f.f.f.f.f.f.f.f.f.f.f.f.f.",
"f.f.f.f.f.f.f.f.f.f.f.f.f.f.f.f.f.f.f.f.f.f.f.f.f.f.f.f.f.f.f.f.",
"f.f.f.f.f.f.f.f.f.f.f.f.f.f.. . f.f.f.f.f.f.f.f.f.f.f.f.f.f.f.f.",
"f.f.f.f.f.f.f.f.f.f.f.f.f.f.$ $ f.f.f.f.f.f.f.f.f.f.f.f.f.f.f.f.",
"f.f.f.f.f.f.f.f.f.f.. . . & 9 9 & . f.f.f.f.f.f.f.f.f.f.f.f.f.f.",
"f.f.f.f.f.f.f.f.f.f.. X # 6 n w &   f.f.f.f.f.f.f.f.f.f.f.f.f.f.",
"f.f.f.f.f.f.f.f.f.f.. # 7 n U f *               f.f.f.f.f.f.f.f.",
"f.f.f.f.f.f.f.f.f.f.  & b K W k r , , < 1 < 1 , f.f.f.f.f.f.f.f.",
"f.f.f.f.f.f.f.f.f.f.  * s W ( ( _ _ _ _ _ _ _ h ,   f.f.f.f.f.f.",
"f.f.f.f.f.f.f.f.f.f.; 4 l ..@.-.<.2.1.2.2.2.5.| 3   f.f.f.f.f.f.",
"f.f.f.f.f.f.f.f.  : p z | ;.6.y.u.p.p.i.i.a.s.:.4   f.f.f.f.f.f.",
"f.f.f.f.f.f.f.f.  > k O.%.1.u.p.6.3.3.3.1.4.4. .3   f.f.f.f.f.f.",
"f.f.f.f.f.f.f.f.  < ^ %.*.1.i.8.j 4 4 4 t t t 2 +   f.f.f.f.f.f.",
"f.f.f.f.f.f.f.f.  1 ` =.*.1.i.8.j 5 4 < o o < 2 + . f.f.f.f.f.f.",
"f.f.f.f.f.f.f.f.  1 _ *.*.1.u.p.8.3.3.[ > <  . .3   f.f.f.f.f.f.",
"f.f.f.f.f.f.f.f.  < ^ &.&.,.t.u.i.s.d.9.j x 0.5.t   f.f.f.f.f.f.",
"f.f.f.f.f.f.f.f.  > k O.%.;.,.1.1.7.s.a.6.9.d.4.t   f.f.f.f.f.f.",
"f.f.f.f.f.f.f.f.  ; i z | $.$.+.X.#.>.w.q.r.e.o.5   f.f.f.f.f.f.",
"f.f.f.f.f.f.f.f.f.f.; e l } } ) S J L Q ~ ~ Q Z - . f.f.f.f.f.f.",
"f.f.f.f.f.f.f.f.f.f.O : d R R P A C N N V V G q &   f.f.f.f.f.f.",
"f.f.f.f.f.f.m M M 0 # & w H F A P R R I T T E s :   f.f.f.f.f.f.",
"f.f.f.f.f.f.m m M c & % w H F D W ' { | } } | k ,   f.f.f.f.f.f.",
"f.f.f.f.m m m M M c $ : f E E R / { +.%.%.%.*.^ 1   f.f.f.f.f.f.",
"f.f.f.f.m m v v v 0 # ; i k / ] ( ( ` ` _ ` ` h >   f.f.f.f.f.f.",
"f.f.f.f.f.f.f.7 7 = f.o ; e k ] ] k r < 1 1 1 > + f.f.f.f.f.f.f.",
"f.f.f.f.f.f.f.f.f.f.f.f.  @ p k x g ;           f.f.f.f.f.f.f.f.",
"f.f.f.f.f.f.f.f.f.f.f.f.f.o @ 3 a p @         f.f.f.f.f.f.f.f.f.",
"f.f.f.f.f.f.f.f.f.f.f.f.f.f.  + 3 3 +   f.f.f.f.f.f.f.f.f.f.f.f.",
"f.f.f.f.f.f.f.f.f.f.f.f.f.f.f.o + + X     f.f.f.f.f.f.f.f.f.f.f.",
"f.f.f.f.f.f.f.f.f.f.f.f.f.f.f.f.      . f.f.f.f.f.f.f.f.f.f.f.f.",
"f.f.f.f.f.f.f.f.f.f.f.f.f.f.f.f.f.    f.f.f.f.f.f.f.f.f.f.f.f.f.",
"f.f.f.f.f.f.f.f.f.f.f.f.f.f.f.f.f.f.f.f.f.f.f.f.f.f.f.f.f.f.f.f."
};
