/* XPM */
static char *result[] = {
/* columns rows colors chars-per-pixel */
"32 32 145 2 ",
"   c #010103",
".  c #060608",
"X  c #0E0709",
"o  c #0B0B0D",
"O  c #0B0204",
"+  c #170809",
"@  c #141416",
"#  c #1C1B1E",
"$  c #171B1E",
"%  c #220B0D",
"&  c #2A0E0F",
"*  c #2B0F10",
"=  c #251012",
"-  c #2C1214",
";  c #231B1E",
":  c #311B1D",
">  c #1E1D21",
",  c #231E21",
"<  c #252629",
"1  c #262A2E",
"2  c #2A2B2E",
"3  c #3B2528",
"4  c #292D31",
"5  c #302F31",
"6  c #293034",
"7  c #323235",
"8  c #3B3B3C",
"9  c #3C3436",
"0  c #431415",
"q  c #4E1D1F",
"w  c #631C1C",
"e  c #6C1F20",
"r  c #432C30",
"t  c #6D2628",
"y  c #7B2425",
"u  c #782F33",
"i  c #7C3335",
"p  c #3D3C40",
"a  c #3D4147",
"s  c #434344",
"d  c #43474C",
"f  c #4E4B51",
"g  c #514C52",
"h  c #584F55",
"j  c #6A4F55",
"k  c #6D5358",
"l  c #5D686F",
"z  c #6E6E6F",
"x  c #68646B",
"c  c #73686F",
"v  c #6B6B72",
"b  c #6F7179",
"n  c #717179",
"m  c #717375",
"M  c #852727",
"N  c #852728",
"B  c #8A2829",
"V  c #9A2D2D",
"C  c #803638",
"Z  c #8C393B",
"A  c #853C3F",
"S  c #AD3232",
"D  c #B13333",
"F  c #BC3636",
"G  c #AA4B3F",
"H  c #BF653A",
"J  c #C2663A",
"K  c #A13F41",
"L  c #9D4A4E",
"P  c #91494B",
"I  c #9F5B5F",
"U  c #A64244",
"Y  c #AE4D40",
"T  c #AA4749",
"R  c #AC4C4F",
"E  c #AE5052",
"W  c #A25559",
"Q  c #BA5A5C",
"!  c #925F64",
"~  c #A35F63",
"^  c #8E6A6F",
"/  c #98766D",
"(  c #96746C",
")  c #8C6A72",
"_  c #926D72",
"`  c #8F737A",
"'  c #97767D",
"]  c #CD7060",
"[  c #D17162",
"{  c #E58C5E",
"}  c #727C84",
"|  c #7B7C84",
" . c #877982",
".. c #8F7B83",
"X. c #937F87",
"o. c #75838C",
"O. c #8D8D8E",
"+. c #818F97",
"@. c #8A8D97",
"#. c #8B8F99",
"$. c #8A949D",
"%. c #939394",
"&. c #999098",
"*. c #91919A",
"=. c #A08990",
"-. c #B19A9B",
";. c #9397A1",
":. c #999AA3",
">. c #A198A0",
",. c #B09BA1",
"<. c #94A3AC",
"1. c #9BA2AC",
"2. c #98A7B1",
"3. c #9AAAB4",
"4. c #9BAEB8",
"5. c #9EB1BB",
"6. c #A8A8AF",
"7. c #A5B4BC",
"8. c #B3B7B9",
"9. c #D8BCBE",
"0. c #AEBDC6",
"q. c #B5BEC6",
"w. c #B5C4CB",
"e. c #BCCAD2",
"r. c #C3C3C3",
"t. c #C6C8C8",
"y. c #CACBCC",
"u. c #CFD2D6",
"i. c #CAD8DE",
"p. c #D4D4D4",
"a. c #D6D8DA",
"s. c #DADCDC",
"d. c #FBDFCF",
"f. c #F2D4CE",
"g. c #F6D7D2",
"h. c #FEE1D1",
"j. c #D5DDE1",
"k. c #E6E6E8",
"l. c #EAEFF1",
"z. c #EEF2F4",
"x. c #F5F4F4",
"c. c #F5FAFB",
"v. c #FDFEFE",
"b. c #F2F7FA",
"n. c None",
/* pixels */
"n.n.n.n.n.n.n.n.n.n.n.n.n.n.n.n.n.n.n.n.n.n.n.n.n.n.n.n.n.n.n.n.",
"n.n.n.n.n.n.n.n.n.n.n.n.n.n.n.n.n.n.n.n.n.n.n.n.n.n.n.n.n.n.n.n.",
"n.n.n.n.n.n.n.n.n.n.n.n.n.n.. . n.n.n.n.n.n.n.n.n.n.n.n.n.n.n.n.",
"n.n.n.n.n.n.n.n.n.n.n.n.n.n.& * n.n.n.n.n.n.n.n.n.n.n.n.n.n.n.n.",
"n.n.n.n.n.n.n.n.n.n.. . . * e e - . n.n.n.n.n.n.n.n.n.n.n.n.n.n.",
"n.n.n.n.n.n.n.n.n.n.. X + q Z i -   n.n.n.n.n.n.n.n.n.n.n.n.n.n.",
"n.n.n.n.n.n.n.n.n.n.. % e Z ! k ;               n.n.n.n.n.n.n.n.",
"n.n.n.n.n.n.n.n.n.n.  - u I ' v a 1 1 1 4 4 2 1 n.n.n.n.n.n.n.n.",
"n.n.n.n.n.n.n.n.n.n.  ; j '  .| o.o.o.o.o.o.o.l 1   n.n.n.n.n.n.",
"n.n.n.n.n.n.n.n.n.n.> p n *.:.6.q.e.w.e.e.e.y.$.7   n.n.n.n.n.n.",
"n.n.n.n.n.n.n.n.  , g n $.7.p.k.l.z.x.z.z.b.c.8.8   n.n.n.n.n.n.",
"n.n.n.n.n.n.n.n.  < v *.2.w.l.x.p.r.r.r.w.t.t.%.7   n.n.n.n.n.n.",
"n.n.n.n.n.n.n.n.  4 } 3.3.w.z.p.z 8 8 8 s s r 7 @   n.n.n.n.n.n.",
"n.n.n.n.n.n.n.n.  4 o.5.4.w.l.p.z 9 8 1 o o 6 7 @ . n.n.n.n.n.n.",
"n.n.n.n.n.n.n.n.  4 o.5.4.w.l.x.p.r.r.O.< 2 %.%.7   n.n.n.n.n.n.",
"n.n.n.n.n.n.n.n.  4 } 3.3.q.j.l.z.c.v.a.m m s.y.s   n.n.n.n.n.n.",
"n.n.n.n.n.n.n.n.  < v ;.3.5.0.w.w.i.c.c.p.a.c.t.s   n.n.n.n.n.n.",
"n.n.n.n.n.n.n.n.  > g n $.2.<.;.&.,.9.f.d.h.g.-.9   n.n.n.n.n.n.",
"n.n.n.n.n.n.n.n.n.n.> p b #.@.` I E Q ] { { [ P :   n.n.n.n.n.n.",
"n.n.n.n.n.n.n.n.n.n.O ; j ) ^ ^ L L S G J J G u - . n.n.n.n.n.n.",
"n.n.n.n.n.n.n.n.F y % = u U U L ^ ^ ^ ^ ( / _ j ; . n.n.n.n.n.n.",
"n.n.n.n.n.n.n.n.B t 3 r A T R ~ X.@.#.#.#.#.#.v <   n.n.n.n.n.n.",
"n.n.n.n.S S S M 0 3 h c ) ' =.>.:.3.3.2.2.2.3.} 1   n.n.n.n.n.n.",
"n.n.n.n.S D D M * > f x x v o.o.o.o.o.o.o.+.<.} 1   n.n.n.n.n.n.",
"n.n.n.n.n.n.D N - o $ < < < 1 6 6 4 4 1 2 d | v <   n.n.n.n.n.n.",
"n.n.n.n.n.n.V y & .                       # g f # .   n.n.n.n.n.",
"n.n.n.n.n.n.n.0 +                       n.o # # o     n.n.n.n.n.",
"n.n.n.n.n.n.n.n.n.n.n.n.n.n.n.n.n.n.n.n.n.n.    .   n.n.n.n.n.n.",
"n.n.n.n.n.n.n.n.n.n.n.n.n.n.n.n.n.n.n.n.n.n.n.    n.n.n.n.n.n.n.",
"n.n.n.n.n.n.n.n.n.n.n.n.n.n.n.n.n.n.n.n.n.n.n.n.n.n.n.n.n.n.n.n.",
"n.n.n.n.n.n.n.n.n.n.n.n.n.n.n.n.n.n.n.n.n.n.n.n.n.n.n.n.n.n.n.n.",
"n.n.n.n.n.n.n.n.n.n.n.n.n.n.n.n.n.n.n.n.n.n.n.n.n.n.n.n.n.n.n.n."
};
