/* XPM */
static char *result[] = {
/* columns rows colors chars-per-pixel */
"32 32 133 2 ",
"   c #010203",
".  c #0D0506",
"X  c #050608",
"o  c #0C0B0D",
"O  c #10090A",
"+  c #0C0E10",
"@  c #131416",
"#  c #1C1B1E",
"$  c #230C0E",
"%  c #2B0D0E",
"&  c #310E0F",
"*  c #250E10",
"=  c #2B0F10",
"-  c #2B1214",
";  c #251719",
":  c #301112",
">  c #331D1F",
",  c #1E1D20",
"<  c #241E21",
"1  c #212226",
"2  c #252529",
"3  c #26292D",
"4  c #282B2E",
"5  c #292E31",
"6  c #302F31",
"7  c #2E3032",
"8  c #323335",
"9  c #3B3B3D",
"0  c #561919",
"q  c #6A1F1F",
"w  c #651F20",
"e  c #6B1F20",
"r  c #472629",
"t  c #40393A",
"y  c #702021",
"u  c #7A2425",
"i  c #782F33",
"p  c #7C3335",
"a  c #634739",
"s  c #674A3C",
"d  c #3D3D40",
"f  c #424243",
"g  c #414348",
"h  c #4F4B51",
"j  c #504C52",
"k  c #6A4E54",
"l  c #6B5156",
"z  c #6F545A",
"x  c #7B575D",
"c  c #5E696F",
"v  c #5F6A70",
"b  c #646269",
"n  c #6E6E6F",
"m  c #69656C",
"M  c #6B6A71",
"N  c #706D75",
"B  c #6F7179",
"V  c #727179",
"C  c #832627",
"Z  c #882727",
"A  c #8A2829",
"S  c #9F2E2E",
"D  c #952B2B",
"F  c #923030",
"G  c #AD3232",
"H  c #B23333",
"J  c #B45B2D",
"K  c #C56B3F",
"L  c #9F3D40",
"P  c #A03D40",
"I  c #954E4F",
"U  c #9C4A4D",
"Y  c #9D5558",
"T  c #A64243",
"R  c #AE4E41",
"E  c #BF6253",
"W  c #915E64",
"Q  c #8B686F",
"!  c #906D6E",
"~  c #99776F",
"^  c #8D6A71",
"/  c #916D72",
"(  c #9B7870",
")  c #BC7475",
"_  c #C36455",
"`  c #C66566",
"'  c #7C7780",
"]  c #727C84",
"[  c #827C85",
"{  c #917A82",
"}  c #76848C",
"|  c #79858D",
" . c #84828B",
".. c #89858E",
"X. c #8B8C96",
"o. c #8B8F99",
"O. c #8F9293",
"+. c #8B929B",
"@. c #92959A",
"#. c #969999",
"$. c #929293",
"%. c #AA9197",
"&. c #9397A1",
"*. c #9698A1",
"=. c #9C9DA5",
"-. c #96A3AD",
";. c #98A6B1",
":. c #9AA9B4",
">. c #9BAEB8",
",. c #9EB1BB",
"<. c #BAA3A4",
"1. c #A2B4BE",
"2. c #A8B4BC",
"3. c #B2B6B8",
"4. c #C8A9A5",
"5. c #C3A5A0",
"6. c #AEBEC6",
"7. c #B6C4CC",
"8. c #B9C7CF",
"9. c #BBC9D1",
"0. c #C4C3C4",
"q. c #C5C8C8",
"w. c #CFD3D8",
"e. c #D3D3D3",
"r. c #EED7D7",
"t. c #F5D6D6",
"y. c #D5DDE1",
"u. c #E7DFE0",
"i. c #EAEFF1",
"p. c #EDF1F3",
"a. c #F3F5F5",
"s. c #F2F7F9",
"d. c None",
/* pixels */
"d.d.d.d.d.d.d.d.d.d.d.d.d.d.d.d.d.d.d.d.d.d.d.d.d.d.d.d.d.d.d.d.",
"d.d.d.d.d.d.d.d.d.d.d.d.d.d.d.d.d.d.d.d.d.d.d.d.d.d.d.d.d.d.d.d.",
"d.d.d.d.d.d.d.d.d.d.X X X   X   d.d.d.d.d.d.d.d.d.d.d.d.d.d.d.d.",
"d.d.d.d.d.d.d.d.d.d.X O * - - = d.d.d.d.d.d.d.d.d.d.d.d.d.d.d.d.",
"d.d.d.d.d.d.d.d.d.d.X * w A C w -   d.d.d.d.d.d.d.d.d.d.d.d.d.d.",
"d.d.d.d.d.d.d.d.d.d.X * w F T F -   d.d.d.d.d.d.d.d.d.d.d.d.d.d.",
"d.d.d.d.d.d.d.d.d.d.d.d.* r x z <               d.d.d.d.d.d.d.d.",
"d.d.d.d.d.d.d.d.d.d.d.d., d M N g 5 4 5 5 5 5 3 d.d.d.d.d.d.d.d.",
"d.d.d.d.d.d.d.d.d.d.  # j M ' [ } } } } } } } v 3   d.d.d.d.d.d.",
"d.d.d.d.d.d.d.d.d.d., 9 V X.X.o.:.1.>.>.>.,.1.} 5   d.d.d.d.d.d.",
"d.d.d.d.d.d.d.d.  , j V +.-.-.-.:.>.>.>.>.,.,.} 5   d.d.d.d.d.d.",
"d.d.d.d.d.d.d.d.  2 M *.:.1.6.7.7.7.7.7.7.9.9.+.8   d.d.d.d.d.d.",
"d.d.d.d.d.d.d.d.  4 ] :.:.6.y.i.i.i.i.a.a.a.a.3.d   d.d.d.d.d.d.",
"d.d.d.d.d.d.d.d.  5 } 1.:.7.i.a.e.0.0.0.q.q.q.$.8   d.d.d.d.d.d.",
"d.d.d.d.d.d.d.d.  5 | >.>.7.p.e.n 9 9 9 f f f 6 @   d.d.d.d.d.d.",
"d.d.d.d.d.d.d.d.  4 ] :.>.7.p.e.n 9 9 5 + + 5 8 @   d.d.d.d.d.d.",
"d.d.d.d.d.d.d.d.  2 m &.:.7.i.a.e.0.q.O.4 5 @.#.8   d.d.d.d.d.d.",
"d.d.d.d.d.d.d.d.  , j B o.2.w.u.t.t.t.5.a s 4.<.t   d.d.d.d.d.d.",
"d.d.d.d.d.d.d.d.d.d., d B +.=.%.) ` ` E J J _ I >   d.d.d.d.d.d.",
"d.d.d.d.d.d.d.d.d.d.. < l / ^ W U L L R K K R p -   d.d.d.d.d.d.",
"d.d.d.d.d.d.d.d.H u * - p T T U W Q Q Q ~ ~ / l < X d.d.d.d.d.d.",
"d.d.d.d.d.d.d.d.H A = ; p T T Y { o.o.o.X.+.+.M 2   d.d.d.d.d.d.",
"d.d.d.d.G G G G H C = < l / / / *.:.:.;.:.;.:.] 5   d.d.d.d.d.d.",
"d.d.d.d.G G G G H C % 1 c .... .| } } } } | | v 2   d.d.d.d.d.d.",
"d.d.d.d.d.d.G H H C % 1 b ....N g 4 5 4 5 5 5 3 @ d.d.d.d.d.d.d.",
"d.d.d.d.d.d.D S S y $ 1 b [ N h #               d.d.d.d.d.d.d.d.",
"d.d.d.d.d.d.d.0 0 & . 2 m N 9 # X d.          d.d.d.d.d.d.d.d.d.",
"d.d.d.d.d.d.d.d.d.d.  < j j ,   d.d.d.d.d.d.d.d.d.d.d.d.d.d.d.d.",
"d.d.d.d.d.d.d.d.d.    o # # o d.d.d.d.d.d.d.d.d.d.d.d.d.d.d.d.d.",
"d.d.d.d.d.d.d.d.d.d.  X     d.d.d.d.d.d.d.d.d.d.d.d.d.d.d.d.d.d.",
"d.d.d.d.d.d.d.d.d.d.d.    d.d.d.d.d.d.d.d.d.d.d.d.d.d.d.d.d.d.d.",
"d.d.d.d.d.d.d.d.d.d.d.d.d.d.d.d.d.d.d.d.d.d.d.d.d.d.d.d.d.d.d.d."
};
