/* XPM */
static char *result[] = {
/* columns rows colors chars-per-pixel */
"32 32 137 2 ",
"   c #010103",
".  c #060608",
"X  c #0E0709",
"o  c #0C0A0B",
"O  c #140606",
"+  c #131416",
"@  c #230C0E",
"#  c #290D0F",
"$  c #2B0F10",
"%  c #2B1315",
"&  c #241B1E",
"*  c #311B1D",
"=  c #1F1D21",
"-  c #231E21",
";  c #1F2226",
":  c #232226",
">  c #252529",
",  c #252A2D",
"<  c #2A2B2E",
"1  c #3B2427",
"2  c #292E32",
"3  c #302F31",
"4  c #323235",
"5  c #3B3B3C",
"6  c #3C3436",
"7  c #4D1718",
"8  c #4E1D1F",
"9  c #411313",
"0  c #531818",
"q  c #631C1C",
"w  c #6C1F20",
"e  c #6D2628",
"r  c #7A2424",
"t  c #7B3234",
"y  c #3D3C40",
"u  c #3D4147",
"i  c #434344",
"p  c #534C52",
"a  c #6A4F55",
"s  c #6B5156",
"d  c #6D545A",
"f  c #5E696F",
"g  c #636067",
"h  c #646269",
"j  c #6E6E6F",
"k  c #6B6B71",
"l  c #6F7179",
"z  c #717179",
"x  c #717375",
"c  c #832626",
"v  c #8E2929",
"b  c #9C2D2D",
"n  c #922B2B",
"m  c #803638",
"M  c #8C393B",
"N  c #A22F2F",
"B  c #A53030",
"V  c #AE3333",
"C  c #B13333",
"Z  c #AB4C3F",
"A  c #C1673B",
"S  c #A13F42",
"D  c #91494B",
"F  c #9E4C4F",
"G  c #9F5B5F",
"H  c #9B5155",
"J  c #A74345",
"K  c #AE4E41",
"L  c #AE5052",
"P  c #A25559",
"I  c #BA5A5C",
"U  c #925E63",
"Y  c #936066",
"T  c #906D6F",
"R  c #97756D",
"E  c #99776F",
"W  c #8D6C73",
"Q  c #926D72",
"!  c #8E7279",
"~  c #CD7060",
"^  c #D17162",
"/  c #E58C5E",
"(  c #727C84",
")  c #7D7E87",
"_  c #847C85",
"`  c #8F7B83",
"'  c #837F89",
"]  c #75838B",
"[  c #79878F",
"{  c #85828B",
"}  c #88848D",
"|  c #8D8D8E",
" . c #8B8C95",
".. c #8D8F99",
"X. c #8A949D",
"o. c #939394",
"O. c #91919A",
"+. c #999098",
"@. c #B19A9B",
"#. c #9397A1",
"$. c #949CA6",
"%. c #9D99A1",
"&. c #B09BA1",
"*. c #95A4AE",
"=. c #99A6B0",
"-. c #9BAAB4",
";. c #9BAEB8",
":. c #9EB1BB",
">. c #A8A8AF",
",. c #A5B4BC",
"<. c #B3B7B9",
"1. c #D8BCBE",
"2. c #AEBDC6",
"3. c #B5BEC6",
"4. c #B5C4CB",
"5. c #BCCAD2",
"6. c #C3C3C3",
"7. c #C6C8C8",
"8. c #CACBCC",
"9. c #CFD2D6",
"0. c #CAD8DE",
"q. c #D4D4D4",
"w. c #D6D8DA",
"e. c #DADCDC",
"r. c #FBDFCF",
"t. c #F2D4CE",
"y. c #F6D7D2",
"u. c #FEE1D1",
"i. c #D5DDE1",
"p. c #E6E6E8",
"a. c #EAEFF1",
"s. c #EEF2F4",
"d. c #F5F4F4",
"f. c #F2F7FA",
"g. c #F5FAFB",
"h. c #FDFEFE",
"j. c None",
/* pixels */
"j.j.j.j.j.j.j.j.j.j.j.j.j.j..   j.j.j.j.j.j.j.j.j.j.j.j.j.j.j.j.",
"j.j.j.j.j.j.j.j.j.j.j.j.j.j.# # j.j.j.j.j.j.j.j.j.j.j.j.j.j.j.j.",
"j.j.j.j.j.j.j.j.j.j.. . . % w e $ . j.j.j.j.j.j.j.j.j.j.j.j.j.j.",
"j.j.j.j.j.j.j.j.j.j.. X O 8 M m %   j.j.j.j.j.j.j.j.j.j.j.j.j.j.",
"j.j.j.j.j.j.j.j.j.j.. @ q M U d -               j.j.j.j.j.j.j.j.",
"j.j.j.j.j.j.j.j.j.j.  % m P ! k u , , < , 2 2 , j.j.j.j.j.j.j.j.",
"j.j.j.j.j.j.j.j.j.j.  & a ! _ ) ] ] ( ] ] ] ] f ,   j.j.j.j.j.j.",
"j.j.j.j.j.j.j.j.j.j.- y z O.%.>.3.5.5.5.5.5.5.X.4   j.j.j.j.j.j.",
"j.j.j.j.j.j.j.j.  - p z X.,.9.p.a.d.s.d.s.d.g.<.y   j.j.j.j.j.j.",
"j.j.j.j.j.j.j.j.  > k #.=.4.a.d.q.4.6.6.6.7.7.o.4   j.j.j.j.j.j.",
"j.j.j.j.j.j.j.j.  < ( =.;.4.s.q.j 6 5 y i i i 3 + . j.j.j.j.j.j.",
"j.j.j.j.j.j.j.j.  2 ] :.;.4.a.q.j 5 5 2 o o < 4 +   j.j.j.j.j.j.",
"j.j.j.j.j.j.j.j.  2 ] :.;.4.a.d.q.6.6.| > < o.o.4   j.j.j.j.j.j.",
"j.j.j.j.j.j.j.j.  < ( -.;.2.i.a.s.g.h.q.j x e.8.i   j.j.j.j.j.j.",
"j.j.j.j.j.j.j.j.  > k #.=.,.2.4.4.0.g.g.q.w.h.7.i   j.j.j.j.j.j.",
"j.j.j.j.j.j.j.j.  - p l X.*.*.$.+.@.1.t.r.u.y.@.6   j.j.j.j.j.j.",
"j.j.j.j.j.j.j.j.j.j.= y l ....` U L I ~ / / ^ D *   j.j.j.j.j.j.",
"j.j.j.j.j.j.j.j.j.j.  - a Q W U L B F K A A Z t % . j.j.j.j.j.j.",
"j.j.j.j.j.j.j.j.j.j.  % t J J F U W W T R E Q a & . j.j.j.j.j.j.",
"j.j.j.j.j.j.j.j.j.j.o % t J S H W ' ' ) ' { { g :   j.j.j.j.j.j.",
"j.j.j.j.j.j.j.j.C r # - d Q Q ! _ ' _ ' ' _ { g :   j.j.j.j.j.j.",
"j.j.j.j.j.j.j.j.C c # ; h } } }  . .........X.k >   j.j.j.j.j.j.",
"j.j.j.j.j.j.V C V c $ ; h } '  .$.=.=.=.=.=.=.( 2   j.j.j.j.j.j.",
"j.j.j.j.j.j.V V C v 7 1 p h g j ( ] ] ] ] [ [ k >   j.j.j.j.j.j.",
"j.j.j.j.V V V V V B n e 1 : : > < 2 2 < 2 2 2 > + j.j.j.j.j.j.j.",
"j.j.j.j.b b b b b N N r #                       j.j.j.j.j.j.j.j.",
"j.j.j.j.j.0 0 7 0 0 0 9 O                     j.j.j.j.j.j.j.j.j.",
"j.j.j.j.j.j.j.j.j.j.j.j.j.j.j.j.j.j.j.j.j.j.j.j.j.j.j.j.j.j.j.j.",
"j.j.j.j.j.j.j.j.j.j.j.j.j.j.j.j.j.j.j.j.j.j.j.j.j.j.j.j.j.j.j.j.",
"j.j.j.j.j.j.j.j.j.j.j.j.j.j.j.j.j.j.j.j.j.j.j.j.j.j.j.j.j.j.j.j.",
"j.j.j.j.j.j.j.j.j.j.j.j.j.j.j.j.j.j.j.j.j.j.j.j.j.j.j.j.j.j.j.j.",
"j.j.j.j.j.j.j.j.j.j.j.j.j.j.j.j.j.j.j.j.j.j.j.j.j.j.j.j.j.j.j.j."
};
