/* XPM */
static char *result[] = {
/* columns rows colors chars-per-pixel */
"32 32 62 1 ",
"  c #404C61",
". c #404C62",
"X c #414D63",
"o c #424E64",
"O c #434F65",
"+ c #455167",
"@ c #465268",
"# c #4E5A71",
"$ c #4F5B72",
"% c #525E75",
"& c #525F75",
"* c #525F76",
"= c #535F76",
"- c #536076",
"; c #536077",
": c #546076",
"> c #546077",
", c #576379",
"< c #57637A",
"1 c #59647A",
"2 c #606D85",
"3 c #69768E",
"4 c #6A768F",
"5 c #76839C",
"6 c #77839C",
"7 c #77839D",
"8 c #77849D",
"9 c #78849D",
"0 c #78859E",
"q c #79859E",
"w c #7A87A0",
"e c #7C88A0",
"r c #7C88A2",
"t c #7C89A2",
"y c #8390A9",
"u c #8792A8",
"i c #8592AB",
"p c #8794AE",
"a c #8794AF",
"s c #8895AF",
"d c #8D98AC",
"f c #8895B0",
"g c #8996B0",
"h c #8996B1",
"j c #8A97B0",
"k c #8A97B1",
"l c #8A97B2",
"z c #8B98B2",
"x c #8E9AB3",
"c c #8F9CB4",
"v c #909CB4",
"b c #919DB5",
"n c #919EB6",
"m c #99A5BB",
"M c #9FAABF",
"N c #A0ABC0",
"B c #A1ACC1",
"V c #A7B1C5",
"C c #A8B1C5",
"Z c #A8B2C6",
"A c #A9B3C7",
"S c None",
/* pixels */
"SSSSSSSSSSSSSSSSSSSSSSSSssssavMV",
"SSSSSSSSSSSSSSSSSSSSSSSSssssavMV",
"SSSSSSSSSSSSSSSSSSSSSSSSssssavMV",
"SSSSSSSSSSSSSSSSSSSSSSSSssssavMV",
"SSSSSSSSSSSSSSSSSSSSSSSSssssavMV",
"SSSSSSSSSSSSSSSSSSSSSSSSssssavMV",
"SSSSSSSSSSSSSSSSSSSSSSSSssssavMV",
"SSSSSSSSSSSSSSSSSSSSSSSSssssavMV",
"SSSSSSSSSSSSSSSSSSSSSSSSssssavMV",
"SSSSSSSSSSSSSSSSSSSSSSSSggggfbNZ",
"SSSSSSSSSSSSSSSSSSSSSSSSkkkggnBA",
"SSSSSSSSSSSSSSSSSSSSSSSS88655eud",
"SSSSSSSSSSSSSSSSSSSSSSSS>-*%%:,1",
"SSSSSSSSSSSSSSSSSSSSSSSSX+#&%:,1",
"SSSSSSSSSSSSSSSSSSSSSSSS.#387eud",
"SSSSSSSSSSSSSSSSSSSSSSSSX;9zknBA",
"SSSSSSSSSSSSSSSSSSSSSSSSX=8lhbNZ",
"SSSSSSSSSSSSSSSSSSSSSSSS.<wgsvMV",
"SSSSSSSSSSSSSSSSSSSSSSSSSSyssvMV",
"SSSSSSSSSSSSSSSSSSSSSSSSSSgspvMV",
"SSSSSSSSSSSSSSSSSSSSSSSSSSsspvMC",
"SSSSSSSSSSSSSSSSSSSSSSSSSSgfsxmM",
"SSSSSSSSSSSSSSSSSSSSSSSSSSkgsjxc",
"SSSSSSSSSSSSSSSSSSSSSSSSSS8riggf",
"SSSSSSSSSSSSSSSSSSSSSSSSSS%2tzkg",
"SSSSSSSSSSSSSSSSSSSSSSSSSS #4q08",
"SSSSSSSSSSSSSSSSSSSSSSSSSSX@$>>>",
"SSSSSSSSSSSSSSSSSSSSSSSSSSOOoXXX",
"SSSSSSSSSSSSSSSSSSSSSSSSSSOOoooo",
"SSSSSSSSSSSSSSSSSSSSSSSSSSOOOOOO",
"SSSSSSSSSSSSSSSSSSSSSSSSSSSSOOOO",
"SSSSSSSSSSSSSSSSSSSSSSSSSSSSOOOO"
};
